<svg width="24" height="12" viewBox="0 0 24 12" xmlns="http://www.w3.org/2000/svg" shape-rendering="crispEdges">
  <path d="M2 0h20v1h-20z M1 1h1v1h-1z M21 1h2v1h-2z M0 2h1v1h-1z M23 2h1v1h-1z M0 3h1v1h-1z M23 3h1v1h-1z M0 4h1v1h-1z M23 4h1v1h-1z M0 5h1v1h-1z M23 5h1v1h-1z M0 6h1v1h-1z M23 6h1v1h-1z M0 7h1v1h-1z M23 7h1v1h-1z M0 8h1v1h-1z M23 8h1v1h-1z M0 9h1v1h-1z M23 9h1v1h-1z M0 10h1v1h-1z M23 10h1v1h-1z " fill="#222222" />
  <path d="M2 1h19v1h-19z M1 2h1v1h-1z M22 2h1v1h-1z M1 3h1v1h-1z M22 3h1v1h-1z M1 4h1v1h-1z M22 4h1v1h-1z M1 5h1v1h-1z M22 5h1v1h-1z M1 6h1v1h-1z M22 6h1v1h-1z M1 7h1v1h-1z M22 7h1v1h-1z M1 8h1v1h-1z M22 8h1v1h-1z M1 9h1v1h-1z M22 9h1v1h-1z M1 10h1v1h-1z M22 10h1v1h-1z M0 11h2v1h-2z M22 11h2v1h-2z " fill="#aa8d7a" />
  <path d="M2 2h20v1h-20z M2 3h20v1h-20z M2 4h20v1h-20z M2 5h20v1h-20z M2 6h20v1h-20z M2 7h20v1h-20z M2 8h20v1h-20z M2 9h20v1h-20z M2 10h20v1h-20z M2 11h20v1h-20z " fill="#d3bfa9" />
</svg>