<svg width="32" height="22" viewBox="0 0 32 22" xmlns="http://www.w3.org/2000/svg" shape-rendering="crispEdges">
  <path d="M2 0h28v1h-28z M1 1h1v1h-1z M30 1h1v1h-1z M0 2h1v1h-1z M31 2h1v1h-1z M0 3h1v1h-1z M31 3h1v1h-1z M0 4h1v1h-1z M31 4h1v1h-1z M0 5h1v1h-1z M31 5h1v1h-1z M0 6h1v1h-1z M31 6h1v1h-1z M0 7h1v1h-1z M31 7h1v1h-1z M0 8h1v1h-1z M31 8h1v1h-1z M0 9h1v1h-1z M31 9h1v1h-1z M0 10h1v1h-1z M31 10h1v1h-1z M0 11h1v1h-1z M31 11h1v1h-1z M0 12h1v1h-1z M31 12h1v1h-1z M0 13h1v1h-1z M31 13h1v1h-1z M0 14h1v1h-1z M31 14h1v1h-1z M0 15h1v1h-1z M31 15h1v1h-1z M0 16h1v1h-1z M31 16h1v1h-1z M0 17h1v1h-1z M31 17h1v1h-1z M0 18h1v1h-1z M31 18h1v1h-1z M0 19h1v1h-1z M31 19h1v1h-1z M1 20h1v1h-1z M30 20h1v1h-1z M2 21h28v1h-28z " fill="#222222" />
  <path d="M2 1h6v1h-6z M9 1h1v1h-1z M14 1h1v1h-1z M17 1h1v1h-1z M22 1h1v1h-1z M24 1h6v1h-6z M1 2h1v1h-1z M30 2h1v1h-1z M2 3h1v1h-1z M29 3h1v1h-1z M1 5h1v1h-1z M30 5h1v1h-1z " fill="#97da3f" />
  <path d="M8 1h1v1h-1z M10 1h4v1h-4z M15 1h2v1h-2z M18 1h4v1h-4z M23 1h1v1h-1z " fill="#ffffff" />
  <path d="M2 2h28v1h-28z M1 3h1v1h-1z M3 3h26v1h-26z M30 3h1v1h-1z M1 4h30v1h-30z M2 5h28v1h-28z M1 6h30v1h-30z M1 7h30v1h-30z M1 8h30v1h-30z M1 9h30v1h-30z M1 10h30v1h-30z M1 11h30v1h-30z M1 12h30v1h-30z M1 13h30v1h-30z M1 14h30v1h-30z M1 15h30v1h-30z M1 16h30v1h-30z M2 17h28v1h-28z M1 18h30v1h-30z M2 19h1v1h-1z M4 19h24v1h-24z M29 19h1v1h-1z " fill="#4ba747" />
  <path d="M1 17h1v1h-1z M30 17h1v1h-1z M1 19h1v1h-1z M3 19h1v1h-1z M28 19h1v1h-1z M30 19h1v1h-1z M2 20h28v1h-28z " fill="#3d734f" />
</svg>