<svg width="14" height="14" viewBox="0 0 14 14" xmlns="http://www.w3.org/2000/svg" shape-rendering="crispEdges">
  <path d="M1 0h12v1h-12z M0 1h2v1h-2z M12 1h2v1h-2z M0 2h1v1h-1z M13 2h1v1h-1z M0 3h1v1h-1z M13 3h1v1h-1z M0 4h1v1h-1z M13 4h1v1h-1z M0 5h1v1h-1z M13 5h1v1h-1z M0 6h1v1h-1z M13 6h1v1h-1z M0 7h1v1h-1z M13 7h1v1h-1z M0 8h1v1h-1z M13 8h1v1h-1z M0 9h1v1h-1z M13 9h1v1h-1z M0 10h1v1h-1z M13 10h1v1h-1z M0 11h1v1h-1z M13 11h1v1h-1z M0 12h2v1h-2z M12 12h2v1h-2z M1 13h12v1h-12z " fill="#aa8d7a" />
  <path d="M2 1h10v1h-10z M1 2h9v1h-9z M12 2h1v1h-1z M1 3h8v1h-8z M1 4h1v1h-1z M4 4h4v1h-4z M5 5h2v1h-2z M12 5h1v1h-1z M11 6h2v1h-2z M1 7h1v1h-1z M10 7h3v1h-3z M1 8h2v1h-2z M9 8h4v1h-4z M1 9h3v1h-3z M8 9h5v1h-5z M1 10h4v1h-4z M7 10h6v1h-6z M1 11h12v1h-12z M2 12h10v1h-10z " fill="#d3bfa9" />
  <path d="M10 2h2v1h-2z M9 3h4v1h-4z M2 4h2v1h-2z M8 4h5v1h-5z M1 5h4v1h-4z M7 5h5v1h-5z M1 6h10v1h-10z M2 7h8v1h-8z M3 8h6v1h-6z M4 9h4v1h-4z M5 10h2v1h-2z " fill="#222222" />
</svg>