<svg width="14" height="14" viewBox="0 0 14 14" xmlns="http://www.w3.org/2000/svg" shape-rendering="crispEdges">
  <path d="M10 2h2v1h-2z M9 3h1v1h-1z M12 3h1v1h-1z M2 4h2v1h-2z M8 4h1v1h-1z M12 4h1v1h-1z M1 5h1v1h-1z M4 5h1v1h-1z M7 5h1v1h-1z M11 5h1v1h-1z M1 6h1v1h-1z M5 6h2v1h-2z M10 6h1v1h-1z M2 7h1v1h-1z M9 7h1v1h-1z M3 8h1v1h-1z M8 8h1v1h-1z M4 9h1v1h-1z M7 9h1v1h-1z M5 10h2v1h-2z " fill="#222222" />
  <path d="M10 3h2v1h-2z M9 4h3v1h-3z M2 5h2v1h-2z M8 5h3v1h-3z M2 6h3v1h-3z M7 6h3v1h-3z M3 7h6v1h-6z M4 8h4v1h-4z M5 9h2v1h-2z " fill="#ffffff" />
</svg>