<svg width="24" height="6" viewBox="0 0 24 6" xmlns="http://www.w3.org/2000/svg" shape-rendering="crispEdges">
  <path d="M0 0h24v1h-24z M0 1h1v1h-1z M23 1h1v1h-1z M0 2h1v1h-1z M23 2h1v1h-1z M0 3h1v1h-1z M23 3h1v1h-1z M0 4h1v1h-1z M2 4h1v1h-1z M21 4h1v1h-1z M23 4h1v1h-1z M0 5h24v1h-24z " fill="#222222" />
  <path d="M1 1h1v1h-1z M3 1h18v1h-18z M22 1h1v1h-1z " fill="#ee8e2e" />
  <path d="M2 1h1v1h-1z M21 1h1v1h-1z " fill="#c56025" />
  <path d="M1 2h1v1h-1z M3 2h18v1h-18z M22 2h1v1h-1z M1 3h1v1h-1z M3 3h18v1h-18z M22 3h1v1h-1z " fill="#8f4029" />
  <path d="M2 2h1v1h-1z M21 2h1v1h-1z M2 3h1v1h-1z M21 3h1v1h-1z M1 4h1v1h-1z M3 4h18v1h-18z M22 4h1v1h-1z " fill="#62232f" />
</svg>