<svg width="16" height="24" viewBox="0 0 16 24" xmlns="http://www.w3.org/2000/svg" shape-rendering="crispEdges">
  <path d="M3 9h10v1h-10z M3 10h1v1h-1z M12 10h1v1h-1z M3 11h1v1h-1z M12 11h1v1h-1z M3 12h1v1h-1z M12 12h1v1h-1z M3 13h1v1h-1z M12 13h1v1h-1z M3 14h1v1h-1z M12 14h1v1h-1z M3 15h1v1h-1z M12 15h1v1h-1z M3 16h1v1h-1z M12 16h1v1h-1z M3 17h1v1h-1z M12 17h1v1h-1z M3 18h1v1h-1z M12 18h1v1h-1z M3 19h1v1h-1z M12 19h1v1h-1z M3 20h1v1h-1z M12 20h1v1h-1z M3 21h1v1h-1z M6 21h4v1h-4z M12 21h1v1h-1z M3 22h1v1h-1z M5 22h1v1h-1z M9 22h1v1h-1z M11 22h1v1h-1z M3 23h2v1h-2z M9 23h2v1h-2z " fill="#181425" />
  <path d="M4 10h1v1h-1z M4 11h1v1h-1z M4 12h1v1h-1z M4 13h1v1h-1z M4 14h1v1h-1z M4 15h1v1h-1z M6 15h2v1h-2z M11 15h1v1h-1z M4 16h1v1h-1z M4 17h1v1h-1z " fill="#92846a" />
  <path d="M5 10h7v1h-7z M5 11h7v1h-7z M5 12h7v1h-7z M5 13h1v1h-1z M8 13h3v1h-3z M5 14h1v1h-1z M8 14h3v1h-3z M5 15h1v1h-1z M8 15h3v1h-3z M5 16h7v1h-7z M5 17h7v1h-7z " fill="#ead4aa" />
  <path d="M6 13h2v1h-2z M11 13h1v1h-1z M6 14h2v1h-2z M11 14h1v1h-1z M4 19h8v1h-8z M4 20h8v1h-8z " fill="#68386c" />
  <path d="M4 18h8v1h-8z M4 21h2v1h-2z M10 21h2v1h-2z M4 22h1v1h-1z M10 22h1v1h-1z " fill="#341c36" />
</svg>