<svg width="16" height="16" viewBox="0 0 16 16" xmlns="http://www.w3.org/2000/svg" shape-rendering="crispEdges">
  <path d="M2 0h12v1h-12z M1 1h1v1h-1z M14 1h1v1h-1z M0 2h1v1h-1z M15 2h1v1h-1z M0 3h1v1h-1z M15 3h1v1h-1z M0 4h1v1h-1z M15 4h1v1h-1z M0 5h1v1h-1z M15 5h1v1h-1z M0 6h1v1h-1z M15 6h1v1h-1z M0 7h1v1h-1z M15 7h1v1h-1z M0 8h1v1h-1z M15 8h1v1h-1z M0 9h1v1h-1z M15 9h1v1h-1z M0 10h1v1h-1z M15 10h1v1h-1z M0 11h1v1h-1z M15 11h1v1h-1z M0 12h1v1h-1z M15 12h1v1h-1z M0 13h1v1h-1z M15 13h1v1h-1z M1 14h1v1h-1z M14 14h1v1h-1z M2 15h12v1h-12z " fill="#222222" />
  <path d="M2 1h12v1h-12z M1 2h1v1h-1z M14 2h1v1h-1z M2 3h1v1h-1z M13 3h1v1h-1z M1 5h1v1h-1z M3 5h1v1h-1z M12 5h1v1h-1z M14 5h1v1h-1z " fill="#ee8e2e" />
  <path d="M2 2h12v1h-12z M1 3h1v1h-1z M5 3h6v1h-6z M14 3h1v1h-1z M1 4h2v1h-2z M6 4h4v1h-4z M13 4h2v1h-2z M2 5h1v1h-1z M7 5h2v1h-2z M13 5h1v1h-1z M1 6h4v1h-4z M11 6h4v1h-4z M1 7h5v1h-5z M10 7h5v1h-5z M1 8h5v1h-5z M10 8h5v1h-5z M1 9h4v1h-4z M11 9h4v1h-4z M1 10h3v1h-3z M7 10h2v1h-2z M12 10h3v1h-3z M1 11h2v1h-2z M6 11h4v1h-4z M13 11h2v1h-2z M1 12h1v1h-1z M5 12h6v1h-6z M14 12h1v1h-1z M2 13h12v1h-12z " fill="#da4e38" />
  <path d="M3 3h2v1h-2z M11 3h2v1h-2z M3 4h3v1h-3z M10 4h3v1h-3z M4 5h3v1h-3z M9 5h3v1h-3z M5 6h6v1h-6z M6 7h4v1h-4z M6 8h4v1h-4z M5 9h6v1h-6z M4 10h3v1h-3z M9 10h3v1h-3z M3 11h3v1h-3z M10 11h3v1h-3z M3 12h2v1h-2z M11 12h2v1h-2z " fill="#ffffff" />
  <path d="M2 12h1v1h-1z M13 12h1v1h-1z M1 13h1v1h-1z M14 13h1v1h-1z M2 14h12v1h-12z " fill="#62232f" />
</svg>