<svg width="22" height="22" viewBox="0 0 22 22" xmlns="http://www.w3.org/2000/svg" shape-rendering="crispEdges">
  <path d="M0 0h22v1h-22z M0 1h1v1h-1z M21 1h1v1h-1z M0 2h1v1h-1z M21 2h1v1h-1z M0 3h1v1h-1z M21 3h1v1h-1z M0 4h1v1h-1z M4 4h14v1h-14z M21 4h1v1h-1z M0 5h1v1h-1z M4 5h14v1h-14z M21 5h1v1h-1z M0 6h1v1h-1z M4 6h14v1h-14z M21 6h1v1h-1z M0 7h1v1h-1z M4 7h14v1h-14z M21 7h1v1h-1z M0 8h1v1h-1z M4 8h14v1h-14z M21 8h1v1h-1z M0 9h1v1h-1z M4 9h14v1h-14z M21 9h1v1h-1z M0 10h1v1h-1z M4 10h14v1h-14z M21 10h1v1h-1z M0 11h1v1h-1z M4 11h14v1h-14z M21 11h1v1h-1z M0 12h1v1h-1z M4 12h14v1h-14z M21 12h1v1h-1z M0 13h1v1h-1z M4 13h14v1h-14z M21 13h1v1h-1z M0 14h1v1h-1z M4 14h14v1h-14z M21 14h1v1h-1z M0 15h1v1h-1z M4 15h14v1h-14z M21 15h1v1h-1z M0 16h1v1h-1z M4 16h14v1h-14z M21 16h1v1h-1z M0 17h1v1h-1z M4 17h14v1h-14z M21 17h1v1h-1z M0 18h1v1h-1z M21 18h1v1h-1z M0 19h1v1h-1z M21 19h1v1h-1z M0 20h1v1h-1z M21 20h1v1h-1z M0 21h22v1h-22z " fill="#222222" />
  <path d="M1 1h4v1h-4z M6 1h1v1h-1z M15 1h1v1h-1z M17 1h4v1h-4z M1 2h1v1h-1z M20 2h1v1h-1z M1 3h1v1h-1z M3 3h16v1h-16z M20 3h1v1h-1z M1 4h1v1h-1z M3 4h1v1h-1z M18 4h1v1h-1z M20 4h1v1h-1z M3 5h1v1h-1z M18 5h1v1h-1z M1 6h1v1h-1z M3 6h1v1h-1z M18 6h1v1h-1z M20 6h1v1h-1z M3 7h1v1h-1z M18 7h1v1h-1z M3 8h1v1h-1z M18 8h1v1h-1z M3 9h1v1h-1z M18 9h1v1h-1z M3 10h1v1h-1z M18 10h1v1h-1z M3 11h1v1h-1z M18 11h1v1h-1z M3 12h1v1h-1z M18 12h1v1h-1z M3 13h1v1h-1z M18 13h1v1h-1z M3 14h1v1h-1z M18 14h1v1h-1z M1 15h1v1h-1z M3 15h1v1h-1z M18 15h1v1h-1z M20 15h1v1h-1z M3 16h1v1h-1z M18 16h1v1h-1z M1 17h1v1h-1z M3 17h1v1h-1z M18 17h1v1h-1z M20 17h1v1h-1z M1 18h1v1h-1z M3 18h16v1h-16z M20 18h1v1h-1z M1 19h1v1h-1z M20 19h1v1h-1z M1 20h4v1h-4z M6 20h1v1h-1z M15 20h1v1h-1z M17 20h4v1h-4z " fill="#62232f" />
  <path d="M5 1h1v1h-1z M7 1h8v1h-8z M16 1h1v1h-1z M1 5h1v1h-1z M20 5h1v1h-1z M1 7h1v1h-1z M20 7h1v1h-1z M1 8h1v1h-1z M20 8h1v1h-1z M1 9h1v1h-1z M20 9h1v1h-1z M1 10h1v1h-1z M20 10h1v1h-1z M1 11h1v1h-1z M20 11h1v1h-1z M1 12h1v1h-1z M20 12h1v1h-1z M1 13h1v1h-1z M20 13h1v1h-1z M1 14h1v1h-1z M20 14h1v1h-1z M1 16h1v1h-1z M20 16h1v1h-1z M5 20h1v1h-1z M7 20h8v1h-8z M16 20h1v1h-1z " fill="#8f4029" />
  <path d="M2 2h18v1h-18z M2 3h1v1h-1z M19 3h1v1h-1z M2 4h1v1h-1z M19 4h1v1h-1z M2 5h1v1h-1z M19 5h1v1h-1z M2 6h1v1h-1z M19 6h1v1h-1z M2 7h1v1h-1z M19 7h1v1h-1z M2 8h1v1h-1z M19 8h1v1h-1z M2 9h1v1h-1z M19 9h1v1h-1z M2 10h1v1h-1z M19 10h1v1h-1z M2 11h1v1h-1z M19 11h1v1h-1z M2 12h1v1h-1z M19 12h1v1h-1z M2 13h1v1h-1z M19 13h1v1h-1z M2 14h1v1h-1z M19 14h1v1h-1z M2 15h1v1h-1z M19 15h1v1h-1z M2 16h1v1h-1z M19 16h1v1h-1z M2 17h1v1h-1z M19 17h1v1h-1z M2 18h1v1h-1z M19 18h1v1h-1z M2 19h18v1h-18z " fill="#ee8e2e" />
</svg>