<svg xmlns="http://www.w3.org/2000/svg" style="display: none;">
  <symbol id="wood_buckler" viewBox="0 0 16 16">
    <path d="M6 1h4v1h-4z M4 2h2v1h-2z M10 2h2v1h-2z M3 3h1v1h-1z M6 3h1v1h-1z M8 3h2v1h-2z M12 3h1v1h-1z M2 4h1v1h-1z M4 4h1v1h-1z M6 4h4v1h-4z M11 4h1v1h-1z M13 4h1v1h-1z M2 5h1v1h-1z M4 5h1v1h-1z M6 5h4v1h-4z M11 5h1v1h-1z M13 5h1v1h-1z M1 6h1v1h-1z M3 6h10v1h-10z M14 6h1v1h-1z M1 7h1v1h-1z M3 7h4v1h-4z M9 7h4v1h-4z M14 7h1v1h-1z M1 8h1v1h-1z M3 8h4v1h-4z M9 8h4v1h-4z M14 8h1v1h-1z M1 9h1v1h-1z M3 9h10v1h-10z M14 9h1v1h-1z M2 10h1v1h-1z M4 10h1v1h-1z M6 10h4v1h-4z M11 10h1v1h-1z M13 10h1v1h-1z M2 11h1v1h-1z M4 11h1v1h-1z M6 11h4v1h-4z M11 11h1v1h-1z M13 11h1v1h-1z M3 12h1v1h-1z M6 12h2v1h-2z M9 12h1v1h-1z M12 12h1v1h-1z M4 13h2v1h-2z M10 13h2v1h-2z M6 14h4v1h-4z" />
  </symbol>
  <symbol id="heraldic_buckler" viewBox="0 0 16 16">
    <path d="M6 1h4v1h-4z M4 2h2v1h-2z M10 2h2v1h-2z M3 3h1v1h-1z M6 3h2v1h-2z M12 3h1v1h-1z M2 4h1v1h-1z M4 4h4v1h-4z M13 4h1v1h-1z M2 5h1v1h-1z M4 5h4v1h-4z M13 5h1v1h-1z M1 6h1v1h-1z M3 6h3v1h-3z M14 6h1v1h-1z M1 7h1v1h-1z M3 7h3v1h-3z M7 7h2v1h-2z M14 7h1v1h-1z M1 8h1v1h-1z M7 8h2v1h-2z M10 8h3v1h-3z M14 8h1v1h-1z M1 9h1v1h-1z M10 9h3v1h-3z M14 9h1v1h-1z M2 10h1v1h-1z M8 10h4v1h-4z M13 10h1v1h-1z M2 11h1v1h-1z M8 11h4v1h-4z M13 11h1v1h-1z M3 12h1v1h-1z M8 12h2v1h-2z M12 12h1v1h-1z M4 13h2v1h-2z M10 13h2v1h-2z M6 14h4v1h-4z" />
  </symbol>
  <symbol id="heater_shield" viewBox="0 0 16 16">
    <path d="M2 1h1v1h-1z M6 1h4v1h-4z M13 1h1v1h-1z M2 2h12v1h-12z M2 3h2v1h-2z M12 3h2v1h-2z M2 4h1v1h-1z M4 4h8v1h-8z M13 4h1v1h-1z M2 5h1v1h-1z M4 5h1v1h-1z M6 5h4v1h-4z M11 5h1v1h-1z M13 5h1v1h-1z M2 6h1v1h-1z M4 6h2v1h-2z M10 6h2v1h-2z M13 6h1v1h-1z M2 7h1v1h-1z M4 7h2v1h-2z M7 7h2v1h-2z M10 7h2v1h-2z M13 7h1v1h-1z M2 8h1v1h-1z M4 8h2v1h-2z M7 8h2v1h-2z M10 8h2v1h-2z M13 8h1v1h-1z M2 9h1v1h-1z M4 9h2v1h-2z M10 9h2v1h-2z M13 9h1v1h-1z M2 10h1v1h-1z M4 10h1v1h-1z M6 10h4v1h-4z M11 10h1v1h-1z M13 10h1v1h-1z M2 11h1v1h-1z M4 11h8v1h-8z M13 11h1v1h-1z M2 12h2v1h-2z M6 12h4v1h-4z M12 12h2v1h-2z M3 13h3v1h-3z M10 13h3v1h-3z M5 14h6v1h-6z" />
  </symbol>
  <symbol id="heraldic_shield" viewBox="0 0 16 16">
    <path d="M4 1h1v1h-1z M6 1h4v1h-4z M11 1h1v1h-1z M3 2h10v1h-10z M3 3h1v1h-1z M12 3h1v1h-1z M3 4h1v1h-1z M5 4h3v1h-3z M12 4h1v1h-1z M3 5h1v1h-1z M5 5h3v1h-3z M12 5h1v1h-1z M3 6h1v1h-1z M5 6h3v1h-3z M12 6h1v1h-1z M3 7h1v1h-1z M5 7h3v1h-3z M12 7h1v1h-1z M3 8h1v1h-1z M8 8h3v1h-3z M12 8h1v1h-1z M3 9h1v1h-1z M8 9h3v1h-3z M12 9h1v1h-1z M3 10h1v1h-1z M8 10h3v1h-3z M12 10h1v1h-1z M3 11h1v1h-1z M8 11h3v1h-3z M12 11h1v1h-1z M3 12h2v1h-2z M11 12h2v1h-2z M4 13h3v1h-3z M9 13h3v1h-3z M6 14h4v1h-4z" />
  </symbol>
  <symbol id="glove" viewBox="0 0 16 16">
    <path d="M10 1h1v1h-1z M12 1h1v1h-1z M10 2h1v1h-1z M12 2h1v1h-1z M14 2h1v1h-1z M10 3h5v1h-5z M8 4h1v1h-1z M10 4h5v1h-5z M3 5h1v1h-1z M5 5h1v1h-1z M8 5h3v1h-3z M14 5h1v1h-1z M1 6h1v1h-1z M3 6h1v1h-1z M5 6h1v1h-1z M9 6h1v1h-1z M11 6h3v1h-3z M1 7h5v1h-5z M10 7h5v1h-5z M1 8h5v1h-5z M7 8h1v1h-1z M10 8h5v1h-5z M1 9h1v1h-1z M5 9h3v1h-3z M10 9h1v1h-1z M14 9h1v1h-1z M2 10h3v1h-3z M6 10h1v1h-1z M11 10h3v1h-3z M1 11h5v1h-5z M1 12h5v1h-5z M1 13h1v1h-1z M5 13h1v1h-1z M2 14h3v1h-3z" />
  </symbol>
  <symbol id="belt" viewBox="0 0 16 16">
    <path d="M4 4h8v1h-8z M2 5h12v1h-12z M1 6h1v1h-1z M4 6h8v1h-8z M14 6h1v1h-1z M1 7h2v1h-2z M13 7h2v1h-2z M1 8h4v1h-4z M6 8h4v1h-4z M11 8h4v1h-4z M1 9h4v1h-4z M6 9h1v1h-1z M9 9h1v1h-1z M11 9h4v1h-4z M2 10h3v1h-3z M6 10h1v1h-1z M9 10h1v1h-1z M11 10h3v1h-3z M6 11h4v1h-4z" />
  </symbol>
  <symbol id="boot" viewBox="0 0 16 16">
    <path d="M3 2h2v1h-2z M11 2h2v1h-2z M3 3h4v1h-4z M9 3h4v1h-4z M3 4h4v1h-4z M9 4h4v1h-4z M3 5h4v1h-4z M9 5h4v1h-4z M3 6h4v1h-4z M9 6h4v1h-4z M6 7h1v1h-1z M9 7h1v1h-1z M3 8h3v1h-3z M10 8h3v1h-3z M2 9h4v1h-4z M10 9h4v1h-4z M1 10h4v1h-4z M6 10h1v1h-1z M9 10h1v1h-1z M11 10h4v1h-4z M2 11h2v1h-2z M5 11h1v1h-1z M10 11h1v1h-1z M12 11h2v1h-2z M1 12h1v1h-1z M4 12h1v1h-1z M11 12h1v1h-1z M14 12h1v1h-1z M2 13h2v1h-2z M12 13h2v1h-2z" />
  </symbol>
  <symbol id="helmet" viewBox="0 0 16 16">
    <path d="M7 1h2v1h-2z M7 2h2v1h-2z M5 3h1v1h-1z M7 3h2v1h-2z M10 3h1v1h-1z M4 4h1v1h-1z M6 4h4v1h-4z M11 4h1v1h-1z M4 5h1v1h-1z M6 5h4v1h-4z M11 5h1v1h-1z M3 6h3v1h-3z M10 6h3v1h-3z M3 7h10v1h-10z M3 8h1v1h-1z M6 8h4v1h-4z M12 8h1v1h-1z M3 9h1v1h-1z M7 9h2v1h-2z M12 9h1v1h-1z M3 10h1v1h-1z M7 10h2v1h-2z M12 10h1v1h-1z M3 11h3v1h-3z M7 11h2v1h-2z M10 11h3v1h-3z M3 12h3v1h-3z M10 12h3v1h-3z M3 13h3v1h-3z M10 13h3v1h-3z M4 14h2v1h-2z M10 14h2v1h-2z" />
  </symbol>
  <symbol id="scroll" viewBox="0 0 16 16">
    <path d="M1 1h1v1h-1z M3 1h11v1h-11z M1 2h1v1h-1z M4 2h11v1h-11z M2 3h1v1h-1z M4 3h11v1h-11z M2 4h1v1h-1z M4 4h1v1h-1z M7 4h1v1h-1z M13 4h2v1h-2z M4 5h11v1h-11z M3 6h2v1h-2z M11 6h1v1h-1z M13 6h1v1h-1z M3 7h11v1h-11z M3 8h1v1h-1z M5 8h1v1h-1z M12 8h2v1h-2z M2 9h11v1h-11z M2 10h11v1h-11z M2 11h1v1h-1z M3 12h1v1h-1z M5 12h10v1h-10z M3 13h1v1h-1z M5 13h10v1h-10z M2 14h1v1h-1z M4 14h10v1h-10z" />
  </symbol>
  <symbol id="letter" viewBox="0 0 16 16">
    <path d="M1 1h1v1h-1z M3 1h11v1h-11z M1 2h1v1h-1z M4 2h11v1h-11z M2 3h1v1h-1z M4 3h2v1h-2z M8 3h1v1h-1z M10 3h1v1h-1z M13 3h2v1h-2z M2 4h1v1h-1z M4 4h2v1h-2z M8 4h1v1h-1z M10 4h1v1h-1z M13 4h2v1h-2z M4 5h11v1h-11z M3 6h2v1h-2z M6 6h1v1h-1z M8 6h1v1h-1z M11 6h1v1h-1z M13 6h1v1h-1z M3 7h2v1h-2z M6 7h1v1h-1z M8 7h1v1h-1z M11 7h1v1h-1z M13 7h1v1h-1z M3 8h11v1h-11z M2 9h2v1h-2z M6 9h1v1h-1z M8 9h1v1h-1z M10 9h1v1h-1z M12 9h1v1h-1z M2 10h11v1h-11z M2 11h1v1h-1z M3 12h1v1h-1z M5 12h10v1h-10z M3 13h1v1h-1z M5 13h10v1h-10z M2 14h1v1h-1z M4 14h10v1h-10z" />
  </symbol>
  <symbol id="guild_board" viewBox="0 0 16 16">
    <path d="M2 1h2v1h-2z M12 1h2v1h-2z M2 2h12v1h-12z M3 3h1v1h-1z M6 3h1v1h-1z M9 3h1v1h-1z M12 3h1v1h-1z M3 4h10v1h-10z M2 5h12v1h-12z M2 6h12v1h-12z M2 7h12v1h-12z M2 8h12v1h-12z M2 9h12v1h-12z M2 10h12v1h-12z M3 11h10v1h-10z M3 12h10v1h-10z M2 13h12v1h-12z M2 14h2v1h-2z M12 14h2v1h-2z" />
  </symbol>
  <symbol id="map" viewBox="0 0 16 16">
    <path d="M2 2h3v1h-3z M6 2h4v1h-4z M11 2h3v1h-3z M2 3h12v1h-12z M2 4h4v1h-4z M7 4h1v1h-1z M9 4h1v1h-1z M11 4h3v1h-3z M3 5h10v1h-10z M2 6h3v1h-3z M8 6h3v1h-3z M12 6h2v1h-2z M2 7h3v1h-3z M6 7h1v1h-1z M8 7h6v1h-6z M2 8h9v1h-9z M12 8h2v1h-2z M2 9h2v1h-2z M5 9h1v1h-1z M7 9h7v1h-7z M3 10h2v1h-2z M6 10h2v1h-2z M9 10h1v1h-1z M11 10h2v1h-2z M2 11h2v1h-2z M5 11h1v1h-1z M7 11h7v1h-7z M2 12h12v1h-12z M2 13h3v1h-3z M6 13h4v1h-4z M11 13h3v1h-3z" />
  </symbol>
  <symbol id="book" viewBox="0 0 16 16">
    <path d="M3 2h10v1h-10z M4 3h9v1h-9z M2 4h1v1h-1z M4 4h2v1h-2z M11 4h2v1h-2z M3 5h3v1h-3z M7 5h3v1h-3z M11 5h2v1h-2z M3 6h3v1h-3z M11 6h2v1h-2z M3 7h10v1h-10z M3 8h10v1h-10z M4 9h9v1h-9z M2 10h1v1h-1z M4 10h9v1h-9z M3 11h10v1h-10z M3 13h10v1h-10z" />
  </symbol>
  <symbol id="satchel" viewBox="0 0 16 16">
    <path d="M6 2h4v1h-4z M6 3h1v1h-1z M9 3h1v1h-1z M2 4h12v1h-12z M2 5h12v1h-12z M2 6h12v1h-12z M2 7h5v1h-5z M9 7h5v1h-5z M2 8h12v1h-12z M4 9h1v1h-1z M11 9h1v1h-1z M2 10h1v1h-1z M4 10h1v1h-1z M6 10h4v1h-4z M11 10h1v1h-1z M13 10h1v1h-1z M2 11h1v1h-1z M6 11h4v1h-4z M13 11h1v1h-1z M2 12h12v1h-12z M2 13h12v1h-12z" />
  </symbol>
  <symbol id="dagger" viewBox="0 0 16 16">
    <path d="M10 3h3v1h-3z M9 4h4v1h-4z M8 5h2v1h-2z M11 5h2v1h-2z M7 6h2v1h-2z M10 6h2v1h-2z M4 7h1v1h-1z M6 7h2v1h-2z M9 7h2v1h-2z M4 8h1v1h-1z M8 8h2v1h-2z M5 9h1v1h-1z M8 9h1v1h-1z M4 10h3v1h-3z M3 11h1v1h-1z M5 11h1v1h-1z M7 11h2v1h-2z M3 12h2v1h-2z" />
  </symbol>
  <symbol id="short_sword" viewBox="0 0 16 16">
    <path d="M10 3h3v1h-3z M9 4h1v1h-1z M12 4h1v1h-1z M8 5h1v1h-1z M12 5h1v1h-1z M7 6h1v1h-1z M11 6h1v1h-1z M4 7h1v1h-1z M6 7h1v1h-1z M10 7h1v1h-1z M4 8h1v1h-1z M9 8h1v1h-1z M5 9h1v1h-1z M8 9h1v1h-1z M4 10h3v1h-3z M3 11h3v1h-3z M7 11h2v1h-2z M3 12h2v1h-2z" />
  </symbol>
  <symbol id="broad_sword" viewBox="0 0 16 16">
    <path d="M12 1h3v1h-3z M11 2h4v1h-4z M10 3h2v1h-2z M13 3h2v1h-2z M9 4h2v1h-2z M12 4h2v1h-2z M8 5h2v1h-2z M11 5h2v1h-2z M7 6h2v1h-2z M10 6h2v1h-2z M6 7h2v1h-2z M9 7h2v1h-2z M2 8h2v1h-2z M5 8h2v1h-2z M8 8h2v1h-2z M3 9h2v1h-2z M7 9h2v1h-2z M4 10h2v1h-2z M7 10h1v1h-1z M3 11h1v1h-1z M5 11h2v1h-2z M2 12h3v1h-3z M6 12h2v1h-2z M1 13h1v1h-1z M3 13h1v1h-1z M7 13h1v1h-1z M1 14h2v1h-2z" />
  </symbol>
  <symbol id="long_sword" viewBox="0 0 16 16">
    <path d="M13 1h2v1h-2z M12 2h3v1h-3z M11 3h3v1h-3z M10 4h3v1h-3z M9 5h3v1h-3z M8 6h3v1h-3z M7 7h3v1h-3z M2 8h1v1h-1z M6 8h3v1h-3z M3 9h1v1h-1z M5 9h3v1h-3z M4 10h1v1h-1z M6 10h1v1h-1z M3 11h3v1h-3z M2 12h1v1h-1z M4 12h1v1h-1z M6 12h1v1h-1z M1 13h1v1h-1z M3 13h1v1h-1z M7 13h1v1h-1z M1 14h2v1h-2z" />
  </symbol>
  <symbol id="tunic" viewBox="0 0 16 16">
    <path d="M6 2h4v1h-4z M5 3h1v1h-1z M10 3h1v1h-1z M3 4h3v1h-3z M10 4h3v1h-3z M2 5h5v1h-5z M9 5h5v1h-5z M2 6h5v1h-5z M9 6h5v1h-5z M2 7h2v1h-2z M5 7h2v1h-2z M9 7h2v1h-2z M12 7h2v1h-2z M2 8h2v1h-2z M5 8h2v1h-2z M9 8h2v1h-2z M12 8h2v1h-2z M2 9h2v1h-2z M5 9h2v1h-2z M9 9h2v1h-2z M12 9h2v1h-2z M5 10h2v1h-2z M9 10h2v1h-2z M4 11h3v1h-3z M9 11h3v1h-3z M4 12h3v1h-3z M9 12h3v1h-3z M5 13h2v1h-2z M9 13h2v1h-2z" />
  </symbol>
  <symbol id="robe" viewBox="0 0 16 16">
    <path d="M7 1h2v1h-2z M6 2h4v1h-4z M5 3h2v1h-2z M9 3h2v1h-2z M5 4h1v1h-1z M10 4h1v1h-1z M5 5h1v1h-1z M10 5h1v1h-1z M4 6h2v1h-2z M10 6h2v1h-2z M3 7h3v1h-3z M10 7h3v1h-3z M3 8h4v1h-4z M9 8h4v1h-4z M2 9h2v1h-2z M5 9h2v1h-2z M9 9h2v1h-2z M12 9h2v1h-2z M2 10h2v1h-2z M5 10h2v1h-2z M9 10h2v1h-2z M12 10h2v1h-2z M2 11h2v1h-2z M5 11h2v1h-2z M9 11h2v1h-2z M12 11h2v1h-2z M5 12h2v1h-2z M9 12h2v1h-2z M4 13h3v1h-3z M9 13h3v1h-3z M4 14h2v1h-2z M10 14h2v1h-2z" />
  </symbol>
  <symbol id="cuirass_armor" viewBox="0 0 16 16">
    <path d="M6 2h4v1h-4z M3 3h3v1h-3z M10 3h3v1h-3z M2 4h1v1h-1z M4 4h2v1h-2z M10 4h2v1h-2z M13 4h1v1h-1z M2 5h1v1h-1z M4 5h8v1h-8z M13 5h1v1h-1z M2 6h1v1h-1z M4 6h8v1h-8z M13 6h1v1h-1z M3 7h2v1h-2z M7 7h2v1h-2z M11 7h2v1h-2z M4 8h8v1h-8z M4 9h2v1h-2z M10 9h2v1h-2z M4 10h1v1h-1z M6 10h4v1h-4z M11 10h1v1h-1z M4 11h1v1h-1z M6 11h4v1h-4z M11 11h1v1h-1z M4 12h1v1h-1z M6 12h4v1h-4z M11 12h1v1h-1z M5 13h6v1h-6z" />
  </symbol>
  <symbol id="plate_armor" viewBox="0 0 16 16">
    <path d="M6 2h4v1h-4z M2 3h2v1h-2z M5 3h1v1h-1z M10 3h1v1h-1z M12 3h2v1h-2z M1 4h3v1h-3z M5 4h1v1h-1z M10 4h1v1h-1z M12 4h3v1h-3z M1 5h4v1h-4z M6 5h4v1h-4z M11 5h4v1h-4z M1 6h5v1h-5z M10 6h5v1h-5z M6 7h4v1h-4z M1 8h2v1h-2z M4 8h8v1h-8z M13 8h2v1h-2z M2 9h1v1h-1z M4 9h3v1h-3z M9 9h3v1h-3z M13 9h1v1h-1z M4 10h1v1h-1z M11 10h1v1h-1z M4 11h1v1h-1z M11 11h1v1h-1z M4 12h2v1h-2z M10 12h2v1h-2z M5 13h6v1h-6z" />
  </symbol>
  <symbol id="carrot" viewBox="0 0 16 16">
    <path d="M9 2h2v1h-2z M12 2h2v1h-2z M9 3h2v1h-2z M12 3h2v1h-2z M11 4h1v1h-1z M7 5h3v1h-3z M12 5h2v1h-2z M6 6h5v1h-5z M12 6h2v1h-2z M6 7h5v1h-5z M5 8h6v1h-6z M4 9h6v1h-6z M4 10h4v1h-4z M3 11h4v1h-4z M2 12h3v1h-3z M2 13h2v1h-2z" />
  </symbol>
  <symbol id="apple" viewBox="0 0 16 16">
    <path d="M9 2h2v1h-2z M8 3h3v1h-3z M8 4h1v1h-1z M4 5h3v1h-3z M9 5h3v1h-3z M3 6h10v1h-10z M3 7h6v1h-6z M11 7h2v1h-2z M3 8h6v1h-6z M11 8h2v1h-2z M3 9h10v1h-10z M3 10h10v1h-10z M4 11h8v1h-8z M4 12h8v1h-8z M5 13h2v1h-2z M9 13h2v1h-2z" />
  </symbol>
  <symbol id="cheese" viewBox="0 0 16 16">
    <path d="M10 2h2v1h-2z M8 3h2v1h-2z M12 3h1v1h-1z M6 4h2v1h-2z M13 4h1v1h-1z M4 5h2v1h-2z M10 5h2v1h-2z M13 5h1v1h-1z M2 6h2v1h-2z M8 6h1v1h-1z M10 6h2v1h-2z M14 6h1v1h-1z M1 7h1v1h-1z M14 7h1v1h-1z M1 8h14v1h-14z M1 9h2v1h-2z M4 9h4v1h-4z M9 9h2v1h-2z M13 9h2v1h-2z M1 10h4v1h-4z M7 10h4v1h-4z M13 10h2v1h-2z M1 11h4v1h-4z M7 11h2v1h-2z M10 11h5v1h-5z M2 12h12v1h-12z" />
  </symbol>
  <symbol id="bread" viewBox="0 0 16 16">
    <path d="M2 3h3v1h-3z M6 3h8v1h-8z M1 4h2v1h-2z M5 4h1v1h-1z M8 4h7v1h-7z M1 5h1v1h-1z M3 5h2v1h-2z M6 5h2v1h-2z M9 5h6v1h-6z M1 6h1v1h-1z M3 6h5v1h-5z M9 6h6v1h-6z M1 7h1v1h-1z M3 7h5v1h-5z M9 7h6v1h-6z M1 8h2v1h-2z M4 8h3v1h-3z M8 8h6v1h-6z M2 9h1v1h-1z M4 9h3v1h-3z M8 9h1v1h-1z M2 10h1v1h-1z M4 10h3v1h-3z M8 10h5v1h-5z M2 11h1v1h-1z M8 11h5v1h-5z M2 12h11v1h-11z" />
  </symbol>
  <symbol id="fish" viewBox="0 0 16 16">
    <path d="M9 2h4v1h-4z M6 3h8v1h-8z M5 4h1v1h-1z M7 4h1v1h-1z M9 4h1v1h-1z M11 4h3v1h-3z M4 5h1v1h-1z M6 5h1v1h-1z M9 5h5v1h-5z M3 6h1v1h-1z M5 6h1v1h-1z M10 6h4v1h-4z M4 7h1v1h-1z M8 7h1v1h-1z M12 7h1v1h-1z M4 8h1v1h-1z M7 8h1v1h-1z M11 8h1v1h-1z M4 9h1v1h-1z M6 9h1v1h-1z M10 9h2v1h-2z M2 10h3v1h-3z M9 10h1v1h-1z M11 10h1v1h-1z M2 11h2v1h-2z M5 11h4v1h-4z M10 11h1v1h-1z M3 12h3v1h-3z M4 13h2v1h-2z" />
  </symbol>
  <symbol id="meat" viewBox="0 0 16 16">
    <path d="M9 2h5v1h-5z M3 3h6v1h-6z M14 3h1v1h-1z M2 4h1v1h-1z M9 4h4v1h-4z M14 4h1v1h-1z M1 5h1v1h-1z M3 5h7v1h-7z M12 5h1v1h-1z M14 5h1v1h-1z M1 6h1v1h-1z M3 6h7v1h-7z M12 6h1v1h-1z M14 6h1v1h-1z M1 7h1v1h-1z M3 7h10v1h-10z M14 7h1v1h-1z M1 8h1v1h-1z M3 8h8v1h-8z M13 8h2v1h-2z M1 9h2v1h-2z M11 9h4v1h-4z M1 10h13v1h-13z M2 11h11v1h-11z M3 12h8v1h-8z" />
  </symbol>
  <symbol id="hatchet" viewBox="0 0 16 16">
    <path d="M8 4h2v1h-2z M11 4h1v1h-1z M7 5h2v1h-2z M10 5h1v1h-1z M12 5h1v1h-1z M7 6h1v1h-1z M9 6h1v1h-1z M12 6h1v1h-1z M8 7h1v1h-1z M11 7h2v1h-2z M7 8h1v1h-1z M10 8h3v1h-3z M6 9h1v1h-1z M8 9h4v1h-4z M4 10h2v1h-2z M5 11h1v1h-1z M3 12h1v1h-1z" />
  </symbol>
  <symbol id="battle_axe" viewBox="0 0 16 16">
    <path d="M8 1h3v1h-3z M7 2h3v1h-3z M6 3h5v1h-5z M12 3h1v1h-1z M6 4h4v1h-4z M11 4h1v1h-1z M6 5h1v1h-1z M8 5h1v1h-1z M10 5h1v1h-1z M12 5h1v1h-1z M14 5h1v1h-1z M9 6h1v1h-1z M11 6h4v1h-4z M8 7h1v1h-1z M10 7h5v1h-5z M7 8h1v1h-1z M11 8h3v1h-3z M5 9h2v1h-2z M10 9h3v1h-3z M5 10h2v1h-2z M3 11h2v1h-2z M4 12h1v1h-1z M1 13h2v1h-2z M1 14h2v1h-2z" />
  </symbol>
  <symbol id="wand" viewBox="0 0 16 16">
    <path d="M11 1h1v1h-1z M13 1h2v1h-2z M11 2h1v1h-1z M13 2h2v1h-2z M11 3h1v1h-1z M11 4h4v1h-4z M10 5h1v1h-1z M9 6h1v1h-1z M7 7h2v1h-2z M8 8h1v1h-1z M6 9h1v1h-1z M4 10h1v1h-1z M4 11h2v1h-2z M3 12h1v1h-1z M1 13h2v1h-2z M1 14h2v1h-2z" />
  </symbol>
  <symbol id="staff" viewBox="0 0 16 16">
    <path d="M11 1h4v1h-4z M11 2h1v1h-1z M14 2h1v1h-1z M11 3h1v1h-1z M13 3h2v1h-2z M11 4h1v1h-1z M10 5h1v1h-1z M9 6h1v1h-1z M8 7h1v1h-1z M7 8h1v1h-1z M6 9h1v1h-1z M5 10h1v1h-1z M4 11h1v1h-1z M3 12h1v1h-1z M1 13h2v1h-2z M1 14h2v1h-2z" />
  </symbol>
  <symbol id="necklace" viewBox="0 0 16 16">
    <path d="M6 2h4v1h-4z M4 3h2v1h-2z M10 3h2v1h-2z M3 4h1v1h-1z M12 4h1v1h-1z M2 5h1v1h-1z M13 5h1v1h-1z M2 6h1v1h-1z M13 6h1v1h-1z M3 7h1v1h-1z M12 7h1v1h-1z M3 8h1v1h-1z M12 8h1v1h-1z M4 9h2v1h-2z M10 9h2v1h-2z M7 10h2v1h-2z M6 11h1v1h-1z M9 11h1v1h-1z M6 12h1v1h-1z M9 12h1v1h-1z M7 13h2v1h-2z" />
  </symbol>
  <symbol id="ring" viewBox="0 0 16 16">
    <path d="M7 3h2v1h-2z M6 4h1v1h-1z M9 4h1v1h-1z M4 5h1v1h-1z M6 5h4v1h-4z M11 5h1v1h-1z M3 6h2v1h-2z M11 6h2v1h-2z M2 7h1v1h-1z M5 7h1v1h-1z M10 7h1v1h-1z M13 7h1v1h-1z M2 8h1v1h-1z M13 8h1v1h-1z M2 9h1v1h-1z M13 9h1v1h-1z M2 10h1v1h-1z M13 10h1v1h-1z M3 11h1v1h-1z M12 11h1v1h-1z M4 12h2v1h-2z M10 12h2v1h-2z M6 13h4v1h-4z" />
  </symbol>
  <symbol id="crown" viewBox="0 0 16 16">
    <path d="M7 2h2v1h-2z M4 3h1v1h-1z M7 3h2v1h-2z M11 3h1v1h-1z M2 4h1v1h-1z M7 4h2v1h-2z M13 4h1v1h-1z M2 5h2v1h-2z M5 5h1v1h-1z M10 5h1v1h-1z M12 5h2v1h-2z M2 6h1v1h-1z M5 6h2v1h-2z M9 6h2v1h-2z M13 6h1v1h-1z M2 7h2v1h-2z M5 7h1v1h-1z M10 7h1v1h-1z M12 7h2v1h-2z M2 8h12v1h-12z M2 9h5v1h-5z M9 9h5v1h-5z M3 10h4v1h-4z M9 10h4v1h-4z M2 11h1v1h-1z M5 11h6v1h-6z M13 11h1v1h-1z M3 12h2v1h-2z M11 12h2v1h-2z M5 13h6v1h-6z" />
  </symbol>
  <symbol id="diamond" viewBox="0 0 16 16">
    <path d="M7 2h2v1h-2z M6 3h2v1h-2z M9 3h1v1h-1z M5 4h4v1h-4z M10 4h1v1h-1z M4 5h4v1h-4z M9 5h1v1h-1z M11 5h1v1h-1z M3 6h6v1h-6z M10 6h1v1h-1z M12 6h1v1h-1z M2 7h6v1h-6z M9 7h1v1h-1z M11 7h1v1h-1z M13 7h1v1h-1z M2 8h1v1h-1z M4 8h1v1h-1z M6 8h1v1h-1z M13 8h1v1h-1z M3 9h1v1h-1z M5 9h1v1h-1z M7 9h1v1h-1z M12 9h1v1h-1z M4 10h1v1h-1z M6 10h1v1h-1z M11 10h1v1h-1z M5 11h1v1h-1z M7 11h1v1h-1z M10 11h1v1h-1z M6 12h1v1h-1z M9 12h1v1h-1z M7 13h2v1h-2z" />
  </symbol>
  <symbol id="joypad_a" viewBox="0 0 16 16">
    <path d="M5 1h6v1h-6z M5 2h1v1h-1z M10 2h1v1h-1z M5 3h1v1h-1z M7 3h2v1h-2z M10 3h1v1h-1z M5 4h1v1h-1z M7 4h2v1h-2z M10 4h1v1h-1z M1 5h5v1h-5z M10 5h5v1h-5z M1 6h1v1h-1z M14 6h1v1h-1z M1 7h1v1h-1z M3 7h2v1h-2z M11 7h2v1h-2z M14 7h1v1h-1z M1 8h1v1h-1z M3 8h2v1h-2z M11 8h2v1h-2z M14 8h1v1h-1z M1 9h1v1h-1z M14 9h1v1h-1z M1 10h5v1h-5z M10 10h5v1h-5z M5 11h1v1h-1z M7 11h2v1h-2z M10 11h1v1h-1z M5 12h1v1h-1z M7 12h2v1h-2z M10 12h1v1h-1z M5 13h1v1h-1z M10 13h1v1h-1z M5 14h6v1h-6z" />
  </symbol>
  <symbol id="joypad_an" viewBox="0 0 16 16">
    <path d="M5 1h6v1h-6z M5 2h6v1h-6z M5 3h2v1h-2z M9 3h2v1h-2z M5 4h2v1h-2z M9 4h2v1h-2z M1 5h14v1h-14z M1 6h1v1h-1z M6 6h4v1h-4z M14 6h1v1h-1z M1 7h1v1h-1z M3 7h2v1h-2z M7 7h2v1h-2z M11 7h2v1h-2z M14 7h1v1h-1z M1 8h1v1h-1z M3 8h2v1h-2z M11 8h2v1h-2z M14 8h1v1h-1z M1 9h1v1h-1z M14 9h1v1h-1z M1 10h5v1h-5z M10 10h5v1h-5z M5 11h1v1h-1z M7 11h2v1h-2z M10 11h1v1h-1z M5 12h1v1h-1z M7 12h2v1h-2z M10 12h1v1h-1z M5 13h1v1h-1z M10 13h1v1h-1z M5 14h6v1h-6z" />
  </symbol>
  <symbol id="joypad_ae" viewBox="0 0 16 16">
    <path d="M5 1h6v1h-6z M5 2h1v1h-1z M10 2h1v1h-1z M5 3h1v1h-1z M7 3h2v1h-2z M10 3h1v1h-1z M5 4h1v1h-1z M7 4h2v1h-2z M10 4h1v1h-1z M1 5h5v1h-5z M10 5h5v1h-5z M1 6h1v1h-1z M9 6h6v1h-6z M1 7h1v1h-1z M3 7h2v1h-2z M8 7h3v1h-3z M13 7h2v1h-2z M1 8h1v1h-1z M3 8h2v1h-2z M8 8h3v1h-3z M13 8h2v1h-2z M1 9h1v1h-1z M9 9h6v1h-6z M1 10h5v1h-5z M10 10h5v1h-5z M5 11h1v1h-1z M7 11h2v1h-2z M10 11h1v1h-1z M5 12h1v1h-1z M7 12h2v1h-2z M10 12h1v1h-1z M5 13h1v1h-1z M10 13h1v1h-1z M5 14h6v1h-6z" />
  </symbol>
  <symbol id="joypad_as" viewBox="0 0 16 16">
    <path d="M5 1h6v1h-6z M5 2h1v1h-1z M10 2h1v1h-1z M5 3h1v1h-1z M7 3h2v1h-2z M10 3h1v1h-1z M5 4h1v1h-1z M7 4h2v1h-2z M10 4h1v1h-1z M1 5h5v1h-5z M10 5h5v1h-5z M1 6h1v1h-1z M14 6h1v1h-1z M1 7h1v1h-1z M3 7h2v1h-2z M11 7h2v1h-2z M14 7h1v1h-1z M1 8h1v1h-1z M3 8h2v1h-2z M7 8h2v1h-2z M11 8h2v1h-2z M14 8h1v1h-1z M1 9h1v1h-1z M6 9h4v1h-4z M14 9h1v1h-1z M1 10h14v1h-14z M5 11h2v1h-2z M9 11h2v1h-2z M5 12h2v1h-2z M9 12h2v1h-2z M5 13h6v1h-6z M5 14h6v1h-6z" />
  </symbol>
  <symbol id="joypad_aw" viewBox="0 0 16 16">
    <path d="M5 1h6v1h-6z M5 2h1v1h-1z M10 2h1v1h-1z M5 3h1v1h-1z M7 3h2v1h-2z M10 3h1v1h-1z M5 4h1v1h-1z M7 4h2v1h-2z M10 4h1v1h-1z M1 5h5v1h-5z M10 5h5v1h-5z M1 6h6v1h-6z M14 6h1v1h-1z M1 7h2v1h-2z M5 7h3v1h-3z M11 7h2v1h-2z M14 7h1v1h-1z M1 8h2v1h-2z M5 8h3v1h-3z M11 8h2v1h-2z M14 8h1v1h-1z M1 9h6v1h-6z M14 9h1v1h-1z M1 10h5v1h-5z M10 10h5v1h-5z M5 11h1v1h-1z M7 11h2v1h-2z M10 11h1v1h-1z M5 12h1v1h-1z M7 12h2v1h-2z M10 12h1v1h-1z M5 13h1v1h-1z M10 13h1v1h-1z M5 14h6v1h-6z" />
  </symbol>
  <symbol id="mouse" viewBox="0 0 16 16">
    <path d="M4 1h8v1h-8z M3 2h1v1h-1z M12 2h1v1h-1z M3 3h1v1h-1z M7 3h2v1h-2z M12 3h1v1h-1z M3 4h1v1h-1z M6 4h1v1h-1z M9 4h1v1h-1z M12 4h1v1h-1z M3 5h4v1h-4z M9 5h4v1h-4z M3 6h1v1h-1z M6 6h1v1h-1z M9 6h1v1h-1z M12 6h1v1h-1z M3 7h1v1h-1z M7 7h2v1h-2z M12 7h1v1h-1z M3 8h1v1h-1z M12 8h1v1h-1z M3 9h1v1h-1z M12 9h1v1h-1z M3 10h1v1h-1z M12 10h1v1h-1z M3 11h1v1h-1z M12 11h1v1h-1z M3 12h2v1h-2z M11 12h2v1h-2z M4 13h8v1h-8z M5 14h6v1h-6z" />
  </symbol>
  <symbol id="arrow" viewBox="0 0 16 16">
    <path d="M10 3h3v1h-3z M11 4h2v1h-2z M9 5h2v1h-2z M12 5h1v1h-1z M10 6h1v1h-1z M8 7h1v1h-1z M7 8h1v1h-1z M6 9h1v1h-1z M5 10h1v1h-1z M4 11h1v1h-1z M3 12h1v1h-1z" />
  </symbol>
  <symbol id="bow" viewBox="0 0 16 16">
    <path d="M13 1h2v1h-2z M14 2h1v1h-1z M12 3h1v1h-1z M14 3h1v1h-1z M11 4h1v1h-1z M14 4h1v1h-1z M10 5h1v1h-1z M14 5h1v1h-1z M9 6h1v1h-1z M13 6h2v1h-2z M8 7h1v1h-1z M13 7h1v1h-1z M7 8h1v1h-1z M13 8h1v1h-1z M6 9h1v1h-1z M12 9h2v1h-2z M5 10h1v1h-1z M12 10h1v1h-1z M4 11h1v1h-1z M11 11h2v1h-2z M3 12h1v1h-1z M9 12h3v1h-3z M1 13h1v1h-1z M6 13h4v1h-4z M1 14h6v1h-6z" />
  </symbol>
  <symbol id="crossbow" viewBox="0 0 16 16">
    <path d="M8 1h1v1h-1z M6 2h1v1h-1z M9 2h1v1h-1z M5 3h1v1h-1z M9 3h2v1h-2z M4 4h1v1h-1z M10 4h2v1h-2z M3 5h1v1h-1z M10 5h2v1h-2z M10 6h2v1h-2z M13 6h1v1h-1z M1 7h2v1h-2z M4 7h1v1h-1z M6 7h3v1h-3z M10 7h2v1h-2z M14 7h1v1h-1z M1 8h3v1h-3z M5 8h1v1h-1z M7 8h2v1h-2z M10 8h2v1h-2z M14 8h1v1h-1z M10 9h2v1h-2z M13 9h1v1h-1z M3 10h1v1h-1z M10 10h2v1h-2z M4 11h1v1h-1z M10 11h2v1h-2z M5 12h1v1h-1z M9 12h2v1h-2z M6 13h1v1h-1z M9 13h1v1h-1z M8 14h1v1h-1z" />
  </symbol>
  <symbol id="bomb" viewBox="0 0 16 16">
    <path d="M9 2h3v1h-3z M7 3h2v1h-2z M12 3h1v1h-1z M9 4h1v1h-1z M5 5h4v1h-4z M12 5h1v1h-1z M14 5h1v1h-1z M4 6h1v1h-1z M7 6h3v1h-3z M13 6h1v1h-1z M3 7h1v1h-1z M6 7h5v1h-5z M12 7h1v1h-1z M14 7h1v1h-1z M3 8h1v1h-1z M6 8h5v1h-5z M3 9h8v1h-8z M3 10h8v1h-8z M4 11h6v1h-6z M5 12h4v1h-4z" />
  </symbol>
  <symbol id="bones" viewBox="0 0 16 16">
    <path d="M4 1h1v1h-1z M4 2h2v1h-2z M3 3h1v1h-1z M1 4h2v1h-2z M2 5h1v1h-1z M6 5h5v1h-5z M5 6h7v1h-7z M6 7h2v1h-2z M10 7h2v1h-2z M6 8h2v1h-2z M10 8h2v1h-2z M4 9h2v1h-2z M7 9h5v1h-5z M13 9h1v1h-1z M4 10h7v1h-7z M13 10h2v1h-2z M4 11h4v1h-4z M11 11h2v1h-2z M9 12h2v1h-2z M7 13h2v1h-2z M8 14h1v1h-1z" />
  </symbol>
  <symbol id="coins" viewBox="0 0 16 16">
    <path d="M6 3h3v1h-3z M5 4h1v1h-1z M9 4h1v1h-1z M5 5h5v1h-5z M5 6h1v1h-1z M9 6h1v1h-1z M5 7h8v1h-8z M5 8h1v1h-1z M9 8h1v1h-1z M13 8h1v1h-1z M3 9h11v1h-11z M2 10h1v1h-1z M6 10h4v1h-4z M13 10h1v1h-1z M2 11h12v1h-12z M3 12h3v1h-3z M10 12h3v1h-3z" />
  </symbol>
  <symbol id="coin" viewBox="0 0 16 16">
    <path d="M6 2h4v1h-4z M4 3h2v1h-2z M10 3h2v1h-2z M3 4h1v1h-1z M7 4h2v1h-2z M12 4h1v1h-1z M3 5h1v1h-1z M5 5h6v1h-6z M12 5h1v1h-1z M2 6h1v1h-1z M5 6h2v1h-2z M9 6h2v1h-2z M13 6h1v1h-1z M2 7h1v1h-1z M4 7h3v1h-3z M9 7h3v1h-3z M13 7h1v1h-1z M2 8h1v1h-1z M4 8h3v1h-3z M9 8h3v1h-3z M13 8h1v1h-1z M2 9h1v1h-1z M5 9h2v1h-2z M9 9h2v1h-2z M13 9h1v1h-1z M3 10h1v1h-1z M5 10h6v1h-6z M12 10h1v1h-1z M3 11h1v1h-1z M7 11h2v1h-2z M12 11h1v1h-1z M4 12h2v1h-2z M10 12h2v1h-2z M6 13h4v1h-4z" />
  </symbol>
  <symbol id="ruby" viewBox="0 0 16 16">
    <path d="M6 2h4v1h-4z M5 3h4v1h-4z M10 3h1v1h-1z M4 4h4v1h-4z M9 4h1v1h-1z M11 4h1v1h-1z M3 5h6v1h-6z M10 5h1v1h-1z M12 5h1v1h-1z M2 6h6v1h-6z M9 6h1v1h-1z M11 6h1v1h-1z M13 6h1v1h-1z M2 7h7v1h-7z M10 7h1v1h-1z M12 7h2v1h-2z M2 8h2v1h-2z M5 8h1v1h-1z M7 8h1v1h-1z M13 8h1v1h-1z M2 9h1v1h-1z M4 9h1v1h-1z M6 9h1v1h-1z M13 9h1v1h-1z M3 10h1v1h-1z M5 10h1v1h-1z M7 10h1v1h-1z M12 10h1v1h-1z M4 11h1v1h-1z M6 11h1v1h-1z M11 11h1v1h-1z M5 12h1v1h-1z M7 12h1v1h-1z M10 12h1v1h-1z M6 13h4v1h-4z" />
  </symbol>
  <symbol id="joypad_b" viewBox="0 0 16 16">
    <path d="M5 1h6v1h-6z M3 2h3v1h-3z M10 2h3v1h-3z M2 3h4v1h-4z M10 3h4v1h-4z M2 4h4v1h-4z M10 4h4v1h-4z M1 5h5v1h-5z M10 5h5v1h-5z M1 6h1v1h-1z M14 6h1v1h-1z M1 7h1v1h-1z M14 7h1v1h-1z M1 8h1v1h-1z M14 8h1v1h-1z M1 9h1v1h-1z M14 9h1v1h-1z M1 10h5v1h-5z M10 10h5v1h-5z M2 11h4v1h-4z M10 11h4v1h-4z M2 12h4v1h-4z M10 12h4v1h-4z M3 13h3v1h-3z M10 13h3v1h-3z M5 14h6v1h-6z" />
  </symbol>
  <symbol id="joypad_bn" viewBox="0 0 16 16">
    <path d="M5 1h6v1h-6z M3 2h3v1h-3z M10 2h3v1h-3z M2 3h4v1h-4z M7 3h2v1h-2z M10 3h4v1h-4z M2 4h4v1h-4z M7 4h2v1h-2z M10 4h4v1h-4z M1 5h5v1h-5z M7 5h2v1h-2z M10 5h5v1h-5z M1 6h1v1h-1z M14 6h1v1h-1z M1 7h1v1h-1z M14 7h1v1h-1z M1 8h1v1h-1z M14 8h1v1h-1z M1 9h1v1h-1z M14 9h1v1h-1z M1 10h5v1h-5z M10 10h5v1h-5z M2 11h4v1h-4z M10 11h4v1h-4z M2 12h4v1h-4z M10 12h4v1h-4z M3 13h3v1h-3z M10 13h3v1h-3z M5 14h6v1h-6z" />
  </symbol>
  <symbol id="joypad_be" viewBox="0 0 16 16">
    <path d="M5 1h6v1h-6z M3 2h3v1h-3z M10 2h3v1h-3z M2 3h4v1h-4z M10 3h4v1h-4z M2 4h4v1h-4z M10 4h4v1h-4z M1 5h5v1h-5z M10 5h5v1h-5z M1 6h1v1h-1z M14 6h1v1h-1z M1 7h1v1h-1z M10 7h3v1h-3z M14 7h1v1h-1z M1 8h1v1h-1z M10 8h3v1h-3z M14 8h1v1h-1z M1 9h1v1h-1z M14 9h1v1h-1z M1 10h5v1h-5z M10 10h5v1h-5z M2 11h4v1h-4z M10 11h4v1h-4z M2 12h4v1h-4z M10 12h4v1h-4z M3 13h3v1h-3z M10 13h3v1h-3z M5 14h6v1h-6z" />
  </symbol>
  <symbol id="joypad_bs" viewBox="0 0 16 16">
    <path d="M5 1h6v1h-6z M3 2h3v1h-3z M10 2h3v1h-3z M2 3h4v1h-4z M10 3h4v1h-4z M2 4h4v1h-4z M10 4h4v1h-4z M1 5h5v1h-5z M10 5h5v1h-5z M1 6h1v1h-1z M14 6h1v1h-1z M1 7h1v1h-1z M14 7h1v1h-1z M1 8h1v1h-1z M14 8h1v1h-1z M1 9h1v1h-1z M14 9h1v1h-1z M1 10h5v1h-5z M7 10h2v1h-2z M10 10h5v1h-5z M2 11h4v1h-4z M7 11h2v1h-2z M10 11h4v1h-4z M2 12h4v1h-4z M7 12h2v1h-2z M10 12h4v1h-4z M3 13h3v1h-3z M10 13h3v1h-3z M5 14h6v1h-6z" />
  </symbol>
  <symbol id="joypad_bw" viewBox="0 0 16 16">
    <path d="M5 1h6v1h-6z M3 2h3v1h-3z M10 2h3v1h-3z M2 3h4v1h-4z M10 3h4v1h-4z M2 4h4v1h-4z M10 4h4v1h-4z M1 5h5v1h-5z M10 5h5v1h-5z M1 6h1v1h-1z M14 6h1v1h-1z M1 7h1v1h-1z M3 7h3v1h-3z M14 7h1v1h-1z M1 8h1v1h-1z M3 8h3v1h-3z M14 8h1v1h-1z M1 9h1v1h-1z M14 9h1v1h-1z M1 10h5v1h-5z M10 10h5v1h-5z M2 11h4v1h-4z M10 11h4v1h-4z M2 12h4v1h-4z M10 12h4v1h-4z M3 13h3v1h-3z M10 13h3v1h-3z M5 14h6v1h-6z" />
  </symbol>
  <symbol id="mouse_left" viewBox="0 0 16 16">
    <path d="M4 1h8v1h-8z M3 2h5v1h-5z M12 2h1v1h-1z M3 3h6v1h-6z M12 3h1v1h-1z M3 4h4v1h-4z M9 4h1v1h-1z M12 4h1v1h-1z M3 5h4v1h-4z M9 5h4v1h-4z M3 6h1v1h-1z M6 6h1v1h-1z M9 6h1v1h-1z M12 6h1v1h-1z M3 7h1v1h-1z M7 7h2v1h-2z M12 7h1v1h-1z M3 8h1v1h-1z M12 8h1v1h-1z M3 9h1v1h-1z M12 9h1v1h-1z M3 10h1v1h-1z M12 10h1v1h-1z M3 11h1v1h-1z M12 11h1v1h-1z M3 12h2v1h-2z M11 12h2v1h-2z M4 13h8v1h-8z M5 14h6v1h-6z" />
  </symbol>
  <symbol id="spear" viewBox="0 0 16 16">
    <path d="M14 1h1v1h-1z M12 2h2v1h-2z M12 3h2v1h-2z M8 4h1v1h-1z M10 4h2v1h-2z M9 5h3v1h-3z M9 6h2v1h-2z M8 7h1v1h-1z M11 7h1v1h-1z M7 8h1v1h-1z M6 9h1v1h-1z M5 10h1v1h-1z M4 11h1v1h-1z M3 12h1v1h-1z M1 13h2v1h-2z M1 14h2v1h-2z" />
  </symbol>
  <symbol id="scythe" viewBox="0 0 16 16">
    <path d="M11 1h1v1h-1z M12 2h2v1h-2z M12 3h2v1h-2z M11 4h4v1h-4z M10 5h1v1h-1z M13 5h2v1h-2z M9 6h1v1h-1z M13 6h2v1h-2z M8 7h1v1h-1z M13 7h2v1h-2z M7 8h1v1h-1z M13 8h2v1h-2z M5 9h2v1h-2z M13 9h1v1h-1z M6 10h1v1h-1z M12 10h1v1h-1z M3 11h2v1h-2z M4 12h1v1h-1z M1 13h2v1h-2z M1 14h2v1h-2z" />
  </symbol>
  <symbol id="hammer" viewBox="0 0 16 16">
    <path d="M8 1h2v1h-2z M7 2h4v1h-4z M6 3h7v1h-7z M6 4h4v1h-4z M11 4h2v1h-2z M7 5h2v1h-2z M10 5h1v1h-1z M12 5h2v1h-2z M8 6h2v1h-2z M11 6h4v1h-4z M8 7h7v1h-7z M7 8h1v1h-1z M10 8h4v1h-4z M5 9h2v1h-2z M11 9h2v1h-2z M6 10h1v1h-1z M3 11h2v1h-2z M4 12h1v1h-1z M1 13h2v1h-2z M1 14h2v1h-2z" />
  </symbol>
  <symbol id="halberd" viewBox="0 0 16 16">
    <path d="M9 1h2v1h-2z M8 2h2v1h-2z M7 3h4v1h-4z M12 3h1v1h-1z M6 4h6v1h-6z M6 5h1v1h-1z M8 5h3v1h-3z M9 6h1v1h-1z M8 7h1v1h-1z M7 8h1v1h-1z M6 9h1v1h-1z M5 10h1v1h-1z M4 11h1v1h-1z M3 12h1v1h-1z M1 13h2v1h-2z M1 14h2v1h-2z" />
  </symbol>
  <symbol id="face_happy" viewBox="0 0 16 16">
    <path d="M6 1h4v1h-4z M4 2h8v1h-8z M3 3h10v1h-10z M2 4h12v1h-12z M2 5h2v1h-2z M6 5h4v1h-4z M12 5h2v1h-2z M1 6h2v1h-2z M6 6h4v1h-4z M13 6h2v1h-2z M1 7h14v1h-14z M1 8h3v1h-3z M12 8h3v1h-3z M1 9h3v1h-3z M12 9h3v1h-3z M2 10h2v1h-2z M6 10h4v1h-4z M12 10h2v1h-2z M2 11h3v1h-3z M11 11h3v1h-3z M3 12h10v1h-10z M4 13h8v1h-8z M6 14h4v1h-4z" />
  </symbol>
  <symbol id="face_sad" viewBox="0 0 16 16">
    <path d="M6 1h4v1h-4z M4 2h8v1h-8z M3 3h10v1h-10z M2 4h12v1h-12z M2 5h4v1h-4z M7 5h2v1h-2z M10 5h4v1h-4z M1 6h2v1h-2z M6 6h4v1h-4z M13 6h2v1h-2z M1 7h3v1h-3z M6 7h4v1h-4z M12 7h3v1h-3z M1 8h14v1h-14z M1 9h4v1h-4z M11 9h4v1h-4z M2 10h2v1h-2z M5 10h6v1h-6z M12 10h2v1h-2z M2 11h12v1h-12z M3 12h10v1h-10z M4 13h8v1h-8z M6 14h4v1h-4z" />
  </symbol>
  <symbol id="face_angry" viewBox="0 0 16 16">
    <path d="M6 1h4v1h-4z M4 2h8v1h-8z M3 3h10v1h-10z M2 4h12v1h-12z M2 5h12v1h-12z M1 6h14v1h-14z M1 7h2v1h-2z M6 7h4v1h-4z M13 7h2v1h-2z M1 8h3v1h-3z M7 8h2v1h-2z M12 8h3v1h-3z M1 9h3v1h-3z M6 9h4v1h-4z M12 9h3v1h-3z M2 10h12v1h-12z M2 11h4v1h-4z M10 11h4v1h-4z M3 12h2v1h-2z M6 12h4v1h-4z M11 12h2v1h-2z M4 13h8v1h-8z M6 14h4v1h-4z" />
  </symbol>
  <symbol id="face_neutral" viewBox="0 0 16 16">
    <path d="M6 1h4v1h-4z M4 2h8v1h-8z M3 3h10v1h-10z M2 4h12v1h-12z M2 5h12v1h-12z M1 6h3v1h-3z M6 6h4v1h-4z M12 6h3v1h-3z M1 7h3v1h-3z M6 7h4v1h-4z M12 7h3v1h-3z M1 8h3v1h-3z M6 8h4v1h-4z M12 8h3v1h-3z M1 9h14v1h-14z M2 10h2v1h-2z M5 10h6v1h-6z M12 10h2v1h-2z M2 11h3v1h-3z M11 11h3v1h-3z M3 12h10v1h-10z M4 13h8v1h-8z M6 14h4v1h-4z" />
  </symbol>
  <symbol id="joystick" viewBox="0 0 16 16">
    <path d="M5 1h6v1h-6z M3 2h3v1h-3z M10 2h3v1h-3z M2 3h2v1h-2z M12 3h2v1h-2z M2 4h1v1h-1z M13 4h1v1h-1z M1 5h2v1h-2z M6 5h4v1h-4z M13 5h2v1h-2z M1 6h1v1h-1z M5 6h6v1h-6z M14 6h1v1h-1z M1 7h1v1h-1z M5 7h6v1h-6z M14 7h1v1h-1z M1 8h1v1h-1z M5 8h6v1h-6z M14 8h1v1h-1z M1 9h1v1h-1z M5 9h6v1h-6z M14 9h1v1h-1z M1 10h2v1h-2z M6 10h4v1h-4z M13 10h2v1h-2z M2 11h1v1h-1z M13 11h1v1h-1z M2 12h2v1h-2z M12 12h2v1h-2z M3 13h3v1h-3z M10 13h3v1h-3z M5 14h6v1h-6z" />
  </symbol>
  <symbol id="joystick_n" viewBox="0 0 16 16">
    <path d="M6 1h4v1h-4z M3 2h1v1h-1z M5 2h6v1h-6z M12 2h1v1h-1z M2 3h2v1h-2z M5 3h6v1h-6z M12 3h2v1h-2z M2 4h1v1h-1z M5 4h6v1h-6z M13 4h1v1h-1z M1 5h2v1h-2z M5 5h6v1h-6z M13 5h2v1h-2z M1 6h1v1h-1z M6 6h4v1h-4z M14 6h1v1h-1z M1 7h1v1h-1z M14 7h1v1h-1z M1 8h1v1h-1z M7 8h2v1h-2z M14 8h1v1h-1z M1 9h1v1h-1z M14 9h1v1h-1z M1 10h2v1h-2z M13 10h2v1h-2z M2 11h1v1h-1z M13 11h1v1h-1z M2 12h2v1h-2z M12 12h2v1h-2z M3 13h3v1h-3z M10 13h3v1h-3z M5 14h6v1h-6z" />
  </symbol>
  <symbol id="joystick_e" viewBox="0 0 16 16">
    <path d="M5 1h6v1h-6z M3 2h3v1h-3z M10 2h3v1h-3z M2 3h2v1h-2z M12 3h2v1h-2z M2 4h1v1h-1z M1 5h2v1h-2z M10 5h4v1h-4z M1 6h1v1h-1z M9 6h6v1h-6z M1 7h1v1h-1z M7 7h1v1h-1z M9 7h6v1h-6z M1 8h1v1h-1z M7 8h1v1h-1z M9 8h6v1h-6z M1 9h1v1h-1z M9 9h6v1h-6z M1 10h2v1h-2z M10 10h4v1h-4z M2 11h1v1h-1z M2 12h2v1h-2z M12 12h2v1h-2z M3 13h3v1h-3z M10 13h3v1h-3z M5 14h6v1h-6z" />
  </symbol>
  <symbol id="joystick_s" viewBox="0 0 16 16">
    <path d="M5 1h6v1h-6z M3 2h3v1h-3z M10 2h3v1h-3z M2 3h2v1h-2z M12 3h2v1h-2z M2 4h1v1h-1z M13 4h1v1h-1z M1 5h2v1h-2z M13 5h2v1h-2z M1 6h1v1h-1z M14 6h1v1h-1z M1 7h1v1h-1z M7 7h2v1h-2z M14 7h1v1h-1z M1 8h1v1h-1z M14 8h1v1h-1z M1 9h1v1h-1z M6 9h4v1h-4z M14 9h1v1h-1z M1 10h2v1h-2z M5 10h6v1h-6z M13 10h2v1h-2z M2 11h1v1h-1z M5 11h6v1h-6z M13 11h1v1h-1z M2 12h2v1h-2z M5 12h6v1h-6z M12 12h2v1h-2z M3 13h1v1h-1z M5 13h6v1h-6z M12 13h1v1h-1z M6 14h4v1h-4z" />
  </symbol>
  <symbol id="joystick_w" viewBox="0 0 16 16">
    <path d="M5 1h6v1h-6z M3 2h3v1h-3z M10 2h3v1h-3z M2 3h2v1h-2z M12 3h2v1h-2z M13 4h1v1h-1z M2 5h4v1h-4z M13 5h2v1h-2z M1 6h6v1h-6z M14 6h1v1h-1z M1 7h6v1h-6z M8 7h1v1h-1z M14 7h1v1h-1z M1 8h6v1h-6z M8 8h1v1h-1z M14 8h1v1h-1z M1 9h6v1h-6z M14 9h1v1h-1z M2 10h4v1h-4z M13 10h2v1h-2z M13 11h1v1h-1z M2 12h2v1h-2z M12 12h2v1h-2z M3 13h3v1h-3z M10 13h3v1h-3z M5 14h6v1h-6z" />
  </symbol>
  <symbol id="mouse_right" viewBox="0 0 16 16">
    <path d="M4 1h8v1h-8z M3 2h1v1h-1z M8 2h5v1h-5z M3 3h1v1h-1z M7 3h6v1h-6z M3 4h1v1h-1z M6 4h1v1h-1z M9 4h4v1h-4z M3 5h4v1h-4z M9 5h4v1h-4z M3 6h1v1h-1z M6 6h1v1h-1z M9 6h1v1h-1z M12 6h1v1h-1z M3 7h1v1h-1z M7 7h2v1h-2z M12 7h1v1h-1z M3 8h1v1h-1z M12 8h1v1h-1z M3 9h1v1h-1z M12 9h1v1h-1z M3 10h1v1h-1z M12 10h1v1h-1z M3 11h1v1h-1z M12 11h1v1h-1z M3 12h2v1h-2z M11 12h2v1h-2z M4 13h8v1h-8z M5 14h6v1h-6z" />
  </symbol>
  <symbol id="shovel" viewBox="0 0 16 16">
    <path d="M10 1h4v1h-4z M9 2h6v1h-6z M8 3h7v1h-7z M7 4h4v1h-4z M12 4h3v1h-3z M8 5h2v1h-2z M11 5h4v1h-4z M10 6h4v1h-4z M8 7h1v1h-1z M10 7h3v1h-3z M7 8h1v1h-1z M11 8h1v1h-1z M6 9h1v1h-1z M3 10h1v1h-1z M5 10h1v1h-1z M2 11h1v1h-1z M4 11h1v1h-1z M1 12h1v1h-1z M5 12h1v1h-1z M2 13h1v1h-1z M4 13h1v1h-1z M3 14h1v1h-1z" />
  </symbol>
  <symbol id="pickaxe" viewBox="0 0 16 16">
    <path d="M5 2h6v1h-6z M8 3h5v1h-5z M10 4h3v1h-3z M9 5h5v1h-5z M10 6h1v1h-1z M12 6h2v1h-2z M8 7h1v1h-1z M12 7h2v1h-2z M7 8h1v1h-1z M13 8h1v1h-1z M6 9h1v1h-1z M13 9h1v1h-1z M5 10h1v1h-1z M13 10h1v1h-1z M4 11h1v1h-1z M2 12h2v1h-2z M2 13h2v1h-2z" />
  </symbol>
  <symbol id="torch" viewBox="0 0 16 16">
    <path d="M12 1h1v1h-1z M13 2h1v1h-1z M12 3h2v1h-2z M9 4h5v1h-5z M8 5h2v1h-2z M12 5h1v1h-1z M8 6h1v1h-1z M12 6h1v1h-1z M11 7h2v1h-2z M7 8h1v1h-1z M10 8h2v1h-2z M6 9h3v1h-3z M5 10h3v1h-3z M4 11h3v1h-3z M4 12h2v1h-2z M2 13h2v1h-2z M2 14h2v1h-2z" />
  </symbol>
  <symbol id="hazard" viewBox="0 0 16 16">
    <path d="M7 1h2v1h-2z M6 2h1v1h-1z M9 2h1v1h-1z M6 3h1v1h-1z M9 3h1v1h-1z M5 4h1v1h-1z M7 4h2v1h-2z M10 4h1v1h-1z M5 5h1v1h-1z M7 5h2v1h-2z M10 5h1v1h-1z M4 6h1v1h-1z M6 6h4v1h-4z M11 6h1v1h-1z M4 7h1v1h-1z M6 7h1v1h-1z M9 7h1v1h-1z M11 7h1v1h-1z M3 8h1v1h-1z M5 8h2v1h-2z M9 8h2v1h-2z M12 8h1v1h-1z M3 9h1v1h-1z M5 9h2v1h-2z M9 9h2v1h-2z M12 9h1v1h-1z M2 10h1v1h-1z M4 10h8v1h-8z M13 10h1v1h-1z M2 11h1v1h-1z M4 11h3v1h-3z M9 11h3v1h-3z M13 11h1v1h-1z M1 12h1v1h-1z M3 12h10v1h-10z M14 12h1v1h-1z M1 13h1v1h-1z M14 13h1v1h-1z M2 14h12v1h-12z" />
  </symbol>
  <symbol id="chat_bubble" viewBox="0 0 16 16">
    <path d="M3 2h10v1h-10z M2 3h4v1h-4z M10 3h4v1h-4z M2 4h3v1h-3z M11 4h3v1h-3z M2 5h2v1h-2z M12 5h2v1h-2z M2 6h2v1h-2z M6 6h1v1h-1z M9 6h1v1h-1z M12 6h2v1h-2z M2 7h2v1h-2z M12 7h2v1h-2z M2 8h2v1h-2z M6 8h1v1h-1z M9 8h1v1h-1z M12 8h2v1h-2z M2 9h3v1h-3z M7 9h2v1h-2z M11 9h3v1h-3z M2 10h4v1h-4z M10 10h4v1h-4z M3 11h10v1h-10z M6 12h4v1h-4z M7 13h2v1h-2z" />
  </symbol>
  <symbol id="x_bubble" viewBox="0 0 16 16">
    <path d="M3 2h10v1h-10z M2 3h12v1h-12z M2 4h3v1h-3z M7 4h2v1h-2z M11 4h3v1h-3z M2 5h3v1h-3z M11 5h3v1h-3z M2 6h4v1h-4z M10 6h4v1h-4z M2 7h4v1h-4z M10 7h4v1h-4z M2 8h3v1h-3z M11 8h3v1h-3z M2 9h3v1h-3z M7 9h2v1h-2z M11 9h3v1h-3z M2 10h12v1h-12z M3 11h10v1h-10z M6 12h4v1h-4z M7 13h2v1h-2z" />
  </symbol>
  <symbol id="dead_bubble" viewBox="0 0 16 16">
    <path d="M3 2h10v1h-10z M2 3h12v1h-12z M2 4h3v1h-3z M11 4h3v1h-3z M2 5h2v1h-2z M12 5h2v1h-2z M2 6h2v1h-2z M12 6h2v1h-2z M2 7h2v1h-2z M6 7h1v1h-1z M9 7h1v1h-1z M12 7h2v1h-2z M2 8h2v1h-2z M12 8h2v1h-2z M2 9h4v1h-4z M10 9h4v1h-4z M2 10h4v1h-4z M10 10h4v1h-4z M3 11h10v1h-10z M6 12h4v1h-4z M7 13h2v1h-2z" />
  </symbol>
  <symbol id="love_bubble" viewBox="0 0 16 16">
    <path d="M3 2h10v1h-10z M2 3h12v1h-12z M2 4h3v1h-3z M7 4h2v1h-2z M11 4h3v1h-3z M2 5h2v1h-2z M12 5h2v1h-2z M2 6h2v1h-2z M12 6h2v1h-2z M2 7h3v1h-3z M11 7h3v1h-3z M2 8h4v1h-4z M10 8h4v1h-4z M2 9h5v1h-5z M9 9h5v1h-5z M2 10h12v1h-12z M3 11h10v1h-10z M6 12h4v1h-4z M7 13h2v1h-2z" />
  </symbol>
  <symbol id="joypad_c" viewBox="0 0 16 16">
    <path d="M6 1h4v1h-4z M5 2h2v1h-2z M9 2h2v1h-2z M5 3h1v1h-1z M10 3h1v1h-1z M5 4h1v1h-1z M10 4h1v1h-1z M2 5h5v1h-5z M9 5h5v1h-5z M1 6h2v1h-2z M5 6h6v1h-6z M13 6h2v1h-2z M1 7h1v1h-1z M6 7h4v1h-4z M14 7h1v1h-1z M1 8h1v1h-1z M6 8h4v1h-4z M14 8h1v1h-1z M1 9h2v1h-2z M5 9h6v1h-6z M13 9h2v1h-2z M2 10h5v1h-5z M9 10h5v1h-5z M5 11h1v1h-1z M10 11h1v1h-1z M5 12h1v1h-1z M10 12h1v1h-1z M5 13h2v1h-2z M9 13h2v1h-2z M6 14h4v1h-4z" />
  </symbol>
  <symbol id="joypad_cn" viewBox="0 0 16 16">
    <path d="M6 1h4v1h-4z M5 2h2v1h-2z M9 2h2v1h-2z M5 3h1v1h-1z M7 3h2v1h-2z M10 3h1v1h-1z M5 4h1v1h-1z M7 4h2v1h-2z M10 4h1v1h-1z M2 5h5v1h-5z M9 5h5v1h-5z M1 6h2v1h-2z M5 6h6v1h-6z M13 6h2v1h-2z M1 7h1v1h-1z M6 7h4v1h-4z M14 7h1v1h-1z M1 8h1v1h-1z M6 8h4v1h-4z M14 8h1v1h-1z M1 9h2v1h-2z M5 9h6v1h-6z M13 9h2v1h-2z M2 10h5v1h-5z M9 10h5v1h-5z M5 11h1v1h-1z M10 11h1v1h-1z M5 12h1v1h-1z M10 12h1v1h-1z M5 13h2v1h-2z M9 13h2v1h-2z M6 14h4v1h-4z" />
  </symbol>
  <symbol id="joypad_ce" viewBox="0 0 16 16">
    <path d="M6 1h4v1h-4z M5 2h2v1h-2z M9 2h2v1h-2z M5 3h1v1h-1z M10 3h1v1h-1z M5 4h1v1h-1z M10 4h1v1h-1z M2 5h5v1h-5z M9 5h5v1h-5z M1 6h2v1h-2z M5 6h6v1h-6z M13 6h2v1h-2z M1 7h1v1h-1z M6 7h4v1h-4z M11 7h2v1h-2z M14 7h1v1h-1z M1 8h1v1h-1z M6 8h4v1h-4z M11 8h2v1h-2z M14 8h1v1h-1z M1 9h2v1h-2z M5 9h6v1h-6z M13 9h2v1h-2z M2 10h5v1h-5z M9 10h5v1h-5z M5 11h1v1h-1z M10 11h1v1h-1z M5 12h1v1h-1z M10 12h1v1h-1z M5 13h2v1h-2z M9 13h2v1h-2z M6 14h4v1h-4z" />
  </symbol>
  <symbol id="joypad_cs" viewBox="0 0 16 16">
    <path d="M6 1h4v1h-4z M5 2h2v1h-2z M9 2h2v1h-2z M5 3h1v1h-1z M10 3h1v1h-1z M5 4h1v1h-1z M10 4h1v1h-1z M2 5h5v1h-5z M9 5h5v1h-5z M1 6h2v1h-2z M5 6h6v1h-6z M13 6h2v1h-2z M1 7h1v1h-1z M6 7h4v1h-4z M14 7h1v1h-1z M1 8h1v1h-1z M6 8h4v1h-4z M14 8h1v1h-1z M1 9h2v1h-2z M5 9h6v1h-6z M13 9h2v1h-2z M2 10h5v1h-5z M9 10h5v1h-5z M5 11h1v1h-1z M7 11h2v1h-2z M10 11h1v1h-1z M5 12h1v1h-1z M7 12h2v1h-2z M10 12h1v1h-1z M5 13h2v1h-2z M9 13h2v1h-2z M6 14h4v1h-4z" />
  </symbol>
  <symbol id="joypad_cw" viewBox="0 0 16 16">
    <path d="M6 1h4v1h-4z M5 2h2v1h-2z M9 2h2v1h-2z M5 3h1v1h-1z M10 3h1v1h-1z M5 4h1v1h-1z M10 4h1v1h-1z M2 5h5v1h-5z M9 5h5v1h-5z M1 6h2v1h-2z M5 6h6v1h-6z M13 6h2v1h-2z M1 7h1v1h-1z M3 7h2v1h-2z M6 7h4v1h-4z M14 7h1v1h-1z M1 8h1v1h-1z M3 8h2v1h-2z M6 8h4v1h-4z M14 8h1v1h-1z M1 9h2v1h-2z M5 9h6v1h-6z M13 9h2v1h-2z M2 10h5v1h-5z M9 10h5v1h-5z M5 11h1v1h-1z M10 11h1v1h-1z M5 12h1v1h-1z M10 12h1v1h-1z M5 13h2v1h-2z M9 13h2v1h-2z M6 14h4v1h-4z" />
  </symbol>
  <symbol id="gamepad" viewBox="0 0 16 16">
    <path d="M8 1h3v1h-3z M14 1h1v1h-1z M7 2h1v1h-1z M11 2h3v1h-3z M1 4h14v1h-14z M1 5h1v1h-1z M7 5h2v1h-2z M14 5h1v1h-1z M1 6h1v1h-1z M4 6h1v1h-1z M7 6h2v1h-2z M11 6h1v1h-1z M14 6h1v1h-1z M1 7h1v1h-1z M3 7h3v1h-3z M7 7h2v1h-2z M10 7h1v1h-1z M12 7h1v1h-1z M14 7h1v1h-1z M1 8h1v1h-1z M4 8h1v1h-1z M7 8h2v1h-2z M11 8h1v1h-1z M14 8h1v1h-1z M1 9h1v1h-1z M14 9h1v1h-1z M1 10h14v1h-14z M1 11h14v1h-14z" />
  </symbol>
  <symbol id="flask_half" viewBox="0 0 16 16">
    <path d="M4 1h8v1h-8z M4 2h1v1h-1z M11 2h1v1h-1z M4 3h1v1h-1z M11 3h1v1h-1z M4 4h2v1h-2z M10 4h2v1h-2z M5 5h1v1h-1z M10 5h1v1h-1z M5 6h1v1h-1z M10 6h1v1h-1z M4 7h2v1h-2z M10 7h2v1h-2z M3 8h2v1h-2z M6 8h4v1h-4z M11 8h2v1h-2z M2 9h2v1h-2z M5 9h6v1h-6z M12 9h2v1h-2z M2 10h1v1h-1z M4 10h8v1h-8z M13 10h1v1h-1z M2 11h1v1h-1z M4 11h8v1h-8z M13 11h1v1h-1z M2 12h1v1h-1z M4 12h8v1h-8z M13 12h1v1h-1z M2 13h2v1h-2z M12 13h2v1h-2z M3 14h10v1h-10z" />
  </symbol>
  <symbol id="flask_full" viewBox="0 0 16 16">
    <path d="M4 1h8v1h-8z M4 2h1v1h-1z M11 2h1v1h-1z M4 3h1v1h-1z M6 3h4v1h-4z M11 3h1v1h-1z M4 4h2v1h-2z M7 4h2v1h-2z M10 4h2v1h-2z M5 5h1v1h-1z M7 5h2v1h-2z M10 5h1v1h-1z M5 6h1v1h-1z M7 6h2v1h-2z M10 6h1v1h-1z M4 7h2v1h-2z M7 7h2v1h-2z M10 7h2v1h-2z M3 8h2v1h-2z M6 8h4v1h-4z M11 8h2v1h-2z M2 9h2v1h-2z M5 9h6v1h-6z M12 9h2v1h-2z M2 10h1v1h-1z M4 10h8v1h-8z M13 10h1v1h-1z M2 11h1v1h-1z M4 11h8v1h-8z M13 11h1v1h-1z M2 12h1v1h-1z M4 12h8v1h-8z M13 12h1v1h-1z M2 13h2v1h-2z M12 13h2v1h-2z M3 14h10v1h-10z" />
  </symbol>
  <symbol id="hourglass_start" viewBox="0 0 16 16">
    <path d="M3 2h10v1h-10z M3 3h1v1h-1z M12 3h1v1h-1z M3 4h1v1h-1z M12 4h1v1h-1z M3 5h2v1h-2z M11 5h2v1h-2z M4 6h2v1h-2z M10 6h2v1h-2z M5 7h2v1h-2z M9 7h2v1h-2z M5 8h2v1h-2z M9 8h2v1h-2z M4 9h2v1h-2z M7 9h2v1h-2z M10 9h2v1h-2z M3 10h2v1h-2z M6 10h4v1h-4z M11 10h2v1h-2z M3 11h1v1h-1z M5 11h6v1h-6z M12 11h1v1h-1z M3 12h1v1h-1z M12 12h1v1h-1z M3 13h10v1h-10z" />
  </symbol>
  <symbol id="hourglass_end" viewBox="0 0 16 16">
    <path d="M3 2h10v1h-10z M3 3h1v1h-1z M12 3h1v1h-1z M3 4h1v1h-1z M5 4h6v1h-6z M12 4h1v1h-1z M3 5h2v1h-2z M6 5h4v1h-4z M11 5h2v1h-2z M4 6h2v1h-2z M7 6h2v1h-2z M10 6h2v1h-2z M5 7h2v1h-2z M9 7h2v1h-2z M5 8h2v1h-2z M9 8h2v1h-2z M4 9h2v1h-2z M7 9h2v1h-2z M10 9h2v1h-2z M3 10h2v1h-2z M6 10h4v1h-4z M11 10h2v1h-2z M3 11h1v1h-1z M5 11h6v1h-6z M12 11h1v1h-1z M3 12h1v1h-1z M12 12h1v1h-1z M3 13h10v1h-10z" />
  </symbol>
  <symbol id="circle_outline" viewBox="0 0 16 16">
    <path d="M6 2h4v1h-4z M4 3h8v1h-8z M3 4h3v1h-3z M10 4h3v1h-3z M3 5h2v1h-2z M11 5h2v1h-2z M2 6h2v1h-2z M12 6h2v1h-2z M2 7h2v1h-2z M12 7h2v1h-2z M2 8h2v1h-2z M12 8h2v1h-2z M2 9h2v1h-2z M12 9h2v1h-2z M3 10h2v1h-2z M11 10h2v1h-2z M3 11h3v1h-3z M10 11h3v1h-3z M4 12h8v1h-8z M6 13h4v1h-4z" />
  </symbol>
  <symbol id="x_mark" viewBox="0 0 16 16">
    <path d="M3 2h2v1h-2z M11 2h2v1h-2z M2 3h4v1h-4z M10 3h4v1h-4z M2 4h5v1h-5z M9 4h5v1h-5z M3 5h10v1h-10z M4 6h8v1h-8z M5 7h6v1h-6z M5 8h6v1h-6z M4 9h8v1h-8z M3 10h10v1h-10z M2 11h5v1h-5z M9 11h5v1h-5z M2 12h4v1h-4z M10 12h4v1h-4z M3 13h2v1h-2z M11 13h2v1h-2z" />
  </symbol>
  <symbol id="!_bubble" viewBox="0 0 16 16">
    <path d="M3 3h10v1h-10z M2 4h12v1h-12z M2 5h5v1h-5z M9 5h5v1h-5z M2 6h5v1h-5z M9 6h5v1h-5z M2 7h5v1h-5z M9 7h5v1h-5z M2 8h5v1h-5z M9 8h5v1h-5z M2 9h12v1h-12z M2 10h5v1h-5z M9 10h5v1h-5z M2 11h12v1h-12z M3 12h10v1h-10z M7 13h2v1h-2z" />
  </symbol>
  <symbol id="?_bubble" viewBox="0 0 16 16">
    <path d="M3 3h10v1h-10z M2 4h12v1h-12z M2 5h5v1h-5z M9 5h5v1h-5z M2 6h4v1h-4z M7 6h1v1h-1z M10 6h4v1h-4z M2 7h6v1h-6z M10 7h4v1h-4z M2 8h5v1h-5z M9 8h5v1h-5z M2 9h12v1h-12z M2 10h5v1h-5z M9 10h5v1h-5z M2 11h12v1h-12z M3 12h10v1h-10z M7 13h2v1h-2z" />
  </symbol>
  <symbol id="chevron_up" viewBox="0 0 16 16">
    <path d="M7 4h2v1h-2z M6 5h4v1h-4z M5 6h6v1h-6z M4 7h8v1h-8z M3 8h10v1h-10z M2 9h5v1h-5z M9 9h5v1h-5z M3 10h3v1h-3z M10 10h3v1h-3z M4 11h1v1h-1z M11 11h1v1h-1z" />
  </symbol>
  <symbol id="chevron_right" viewBox="0 0 16 16">
    <path d="M6 2h1v1h-1z M5 3h3v1h-3z M4 4h5v1h-5z M5 5h5v1h-5z M6 6h5v1h-5z M7 7h5v1h-5z M7 8h5v1h-5z M6 9h5v1h-5z M5 10h5v1h-5z M4 11h5v1h-5z M5 12h3v1h-3z M6 13h1v1h-1z" />
  </symbol>
  <symbol id="chevron_down" viewBox="0 0 16 16">
    <path d="M4 4h1v1h-1z M11 4h1v1h-1z M3 5h3v1h-3z M10 5h3v1h-3z M2 6h5v1h-5z M9 6h5v1h-5z M3 7h10v1h-10z M4 8h8v1h-8z M5 9h6v1h-6z M6 10h4v1h-4z M7 11h2v1h-2z" />
  </symbol>
  <symbol id="chevron_left" viewBox="0 0 16 16">
    <path d="M9 2h1v1h-1z M8 3h3v1h-3z M7 4h5v1h-5z M6 5h5v1h-5z M5 6h5v1h-5z M4 7h5v1h-5z M4 8h5v1h-5z M5 9h5v1h-5z M6 10h5v1h-5z M7 11h5v1h-5z M8 12h3v1h-3z M9 13h1v1h-1z" />
  </symbol>
  <symbol id="maximize" viewBox="0 0 16 16">
    <path d="M2 1h2v1h-2z M12 1h2v1h-2z M1 2h4v1h-4z M6 2h1v1h-1z M9 2h1v1h-1z M11 2h4v1h-4z M1 3h6v1h-6z M9 3h6v1h-6z M2 4h5v1h-5z M9 4h5v1h-5z M3 5h4v1h-4z M9 5h4v1h-4z M2 6h5v1h-5z M9 6h5v1h-5z M2 9h5v1h-5z M9 9h5v1h-5z M3 10h4v1h-4z M9 10h4v1h-4z M2 11h5v1h-5z M9 11h5v1h-5z M1 12h6v1h-6z M9 12h6v1h-6z M1 13h4v1h-4z M6 13h1v1h-1z M9 13h1v1h-1z M11 13h4v1h-4z M2 14h2v1h-2z M12 14h2v1h-2z" />
  </symbol>
  <symbol id="align" viewBox="0 0 16 16">
    <path d="M3 2h2v1h-2z M7 2h2v1h-2z M11 2h2v1h-2z M2 3h12v1h-12z M2 4h12v1h-12z M3 5h3v1h-3z M10 5h3v1h-3z M3 6h2v1h-2z M11 6h2v1h-2z M2 7h3v1h-3z M7 7h2v1h-2z M11 7h3v1h-3z M2 8h3v1h-3z M7 8h2v1h-2z M11 8h3v1h-3z M3 9h2v1h-2z M11 9h2v1h-2z M3 10h3v1h-3z M10 10h3v1h-3z M2 11h12v1h-12z M2 12h12v1h-12z M3 13h2v1h-2z M7 13h2v1h-2z M11 13h2v1h-2z" />
  </symbol>
  <symbol id="music_note" viewBox="0 0 16 16">
    <path d="M5 2h9v1h-9z M5 3h9v1h-9z M5 4h2v1h-2z M12 4h2v1h-2z M5 5h2v1h-2z M8 5h3v1h-3z M12 5h2v1h-2z M5 6h2v1h-2z M12 6h2v1h-2z M5 7h2v1h-2z M12 7h2v1h-2z M5 8h2v1h-2z M12 8h2v1h-2z M5 9h2v1h-2z M10 9h4v1h-4z M3 10h4v1h-4z M9 10h5v1h-5z M2 11h5v1h-5z M9 11h4v1h-4z M2 12h4v1h-4z M10 12h2v1h-2z M3 13h2v1h-2z" />
  </symbol>
  <symbol id="volume_high" viewBox="0 0 16 16">
    <path d="M7 3h2v1h-2z M5 4h5v1h-5z M12 4h1v1h-1z M4 5h3v1h-3z M9 5h1v1h-1z M13 5h1v1h-1z M2 6h5v1h-5z M9 6h1v1h-1z M11 6h1v1h-1z M13 6h1v1h-1z M2 7h5v1h-5z M8 7h2v1h-2z M11 7h1v1h-1z M13 7h1v1h-1z M2 8h5v1h-5z M8 8h2v1h-2z M11 8h1v1h-1z M13 8h1v1h-1z M2 9h5v1h-5z M9 9h1v1h-1z M11 9h1v1h-1z M13 9h1v1h-1z M4 10h3v1h-3z M9 10h1v1h-1z M13 10h1v1h-1z M5 11h5v1h-5z M12 11h1v1h-1z M7 12h2v1h-2z" />
  </symbol>
  <symbol id="volume_low" viewBox="0 0 16 16">
    <path d="M7 3h2v1h-2z M5 4h5v1h-5z M4 5h3v1h-3z M9 5h1v1h-1z M2 6h5v1h-5z M9 6h1v1h-1z M2 7h5v1h-5z M8 7h2v1h-2z M2 8h5v1h-5z M8 8h2v1h-2z M2 9h5v1h-5z M9 9h1v1h-1z M4 10h3v1h-3z M9 10h1v1h-1z M5 11h5v1h-5z M7 12h2v1h-2z" />
  </symbol>
  <symbol id="floppy_disk" viewBox="0 0 16 16">
    <path d="M2 2h9v1h-9z M2 3h10v1h-10z M2 4h3v1h-3z M11 4h2v1h-2z M2 5h3v1h-3z M8 5h2v1h-2z M11 5h3v1h-3z M2 6h3v1h-3z M8 6h2v1h-2z M11 6h3v1h-3z M2 7h12v1h-12z M2 8h2v1h-2z M12 8h2v1h-2z M2 9h2v1h-2z M5 9h1v1h-1z M7 9h1v1h-1z M9 9h1v1h-1z M12 9h2v1h-2z M2 10h2v1h-2z M6 10h1v1h-1z M8 10h1v1h-1z M10 10h1v1h-1z M12 10h2v1h-2z M2 11h2v1h-2z M12 11h2v1h-2z M2 12h12v1h-12z M2 13h12v1h-12z" />
  </symbol>
  <symbol id="box_empty" viewBox="0 0 16 16">
    <path d="M3 2h10v1h-10z M2 3h2v1h-2z M12 3h2v1h-2z M2 4h1v1h-1z M13 4h1v1h-1z M2 5h1v1h-1z M13 5h1v1h-1z M2 6h1v1h-1z M13 6h1v1h-1z M2 7h1v1h-1z M13 7h1v1h-1z M2 8h1v1h-1z M13 8h1v1h-1z M2 9h1v1h-1z M13 9h1v1h-1z M2 10h1v1h-1z M13 10h1v1h-1z M2 11h1v1h-1z M13 11h1v1h-1z M2 12h2v1h-2z M12 12h2v1h-2z M3 13h10v1h-10z" />
  </symbol>
  <symbol id="box_x" viewBox="0 0 16 16">
    <path d="M3 2h1v1h-1z M5 2h6v1h-6z M12 2h1v1h-1z M2 3h3v1h-3z M11 3h3v1h-3z M3 4h3v1h-3z M10 4h3v1h-3z M2 5h1v1h-1z M4 5h3v1h-3z M9 5h3v1h-3z M13 5h1v1h-1z M2 6h1v1h-1z M5 6h6v1h-6z M13 6h1v1h-1z M2 7h1v1h-1z M6 7h4v1h-4z M13 7h1v1h-1z M2 8h1v1h-1z M6 8h4v1h-4z M13 8h1v1h-1z M2 9h1v1h-1z M5 9h6v1h-6z M13 9h1v1h-1z M2 10h1v1h-1z M4 10h3v1h-3z M9 10h3v1h-3z M13 10h1v1h-1z M3 11h3v1h-3z M10 11h3v1h-3z M2 12h3v1h-3z M11 12h3v1h-3z M3 13h1v1h-1z M5 13h6v1h-6z M12 13h1v1h-1z" />
  </symbol>
  <symbol id="half_heart" viewBox="0 0 16 16">
    <path d="M4 2h2v1h-2z M10 2h2v1h-2z M3 3h4v1h-4z M9 3h4v1h-4z M2 4h2v1h-2z M6 4h4v1h-4z M12 4h2v1h-2z M1 5h2v1h-2z M4 5h2v1h-2z M7 5h2v1h-2z M13 5h2v1h-2z M1 6h2v1h-2z M4 6h3v1h-3z M13 6h2v1h-2z M1 7h2v1h-2z M4 7h4v1h-4z M13 7h2v1h-2z M2 8h2v1h-2z M5 8h3v1h-3z M12 8h2v1h-2z M3 9h2v1h-2z M6 9h2v1h-2z M11 9h2v1h-2z M4 10h2v1h-2z M7 10h1v1h-1z M10 10h2v1h-2z M5 11h2v1h-2z M9 11h2v1h-2z M6 12h4v1h-4z M7 13h2v1h-2z" />
  </symbol>
  <symbol id="full_heart" viewBox="0 0 16 16">
    <path d="M4 2h2v1h-2z M10 2h2v1h-2z M3 3h4v1h-4z M9 3h4v1h-4z M2 4h2v1h-2z M6 4h4v1h-4z M12 4h2v1h-2z M1 5h2v1h-2z M4 5h2v1h-2z M7 5h2v1h-2z M10 5h2v1h-2z M13 5h2v1h-2z M1 6h2v1h-2z M4 6h3v1h-3z M9 6h3v1h-3z M13 6h2v1h-2z M1 7h2v1h-2z M4 7h8v1h-8z M13 7h2v1h-2z M2 8h2v1h-2z M5 8h6v1h-6z M12 8h2v1h-2z M3 9h2v1h-2z M6 9h4v1h-4z M11 9h2v1h-2z M4 10h2v1h-2z M7 10h2v1h-2z M10 10h2v1h-2z M5 11h2v1h-2z M9 11h2v1h-2z M6 12h4v1h-4z M7 13h2v1h-2z" />
  </symbol>
  <symbol id="arrow_up" viewBox="0 0 16 16">
    <path d="M7 2h2v1h-2z M6 3h1v1h-1z M9 3h1v1h-1z M5 4h1v1h-1z M10 4h1v1h-1z M4 5h1v1h-1z M11 5h1v1h-1z M3 6h1v1h-1z M12 6h1v1h-1z M3 7h1v1h-1z M12 7h1v1h-1z M3 8h3v1h-3z M10 8h3v1h-3z M5 9h1v1h-1z M10 9h1v1h-1z M5 10h1v1h-1z M10 10h1v1h-1z M5 11h1v1h-1z M10 11h1v1h-1z M5 12h1v1h-1z M10 12h1v1h-1z M5 13h6v1h-6z" />
  </symbol>
  <symbol id="arrow_right" viewBox="0 0 16 16">
    <path d="M7 3h3v1h-3z M7 4h1v1h-1z M10 4h1v1h-1z M2 5h6v1h-6z M11 5h1v1h-1z M2 6h1v1h-1z M12 6h1v1h-1z M2 7h1v1h-1z M13 7h1v1h-1z M2 8h1v1h-1z M13 8h1v1h-1z M2 9h1v1h-1z M12 9h1v1h-1z M2 10h6v1h-6z M11 10h1v1h-1z M7 11h1v1h-1z M10 11h1v1h-1z M7 12h3v1h-3z" />
  </symbol>
  <symbol id="arrow_down" viewBox="0 0 16 16">
    <path d="M5 2h6v1h-6z M5 3h1v1h-1z M10 3h1v1h-1z M5 4h1v1h-1z M10 4h1v1h-1z M5 5h1v1h-1z M10 5h1v1h-1z M5 6h1v1h-1z M10 6h1v1h-1z M3 7h3v1h-3z M10 7h3v1h-3z M3 8h1v1h-1z M12 8h1v1h-1z M3 9h1v1h-1z M12 9h1v1h-1z M4 10h1v1h-1z M11 10h1v1h-1z M5 11h1v1h-1z M10 11h1v1h-1z M6 12h1v1h-1z M9 12h1v1h-1z M7 13h2v1h-2z" />
  </symbol>
  <symbol id="arrow_left" viewBox="0 0 16 16">
    <path d="M6 3h3v1h-3z M5 4h1v1h-1z M8 4h1v1h-1z M4 5h1v1h-1z M8 5h6v1h-6z M3 6h1v1h-1z M13 6h1v1h-1z M2 7h1v1h-1z M13 7h1v1h-1z M2 8h1v1h-1z M13 8h1v1h-1z M3 9h1v1h-1z M13 9h1v1h-1z M4 10h1v1h-1z M8 10h6v1h-6z M5 11h1v1h-1z M8 11h1v1h-1z M6 12h3v1h-3z" />
  </symbol>
  <symbol id="expand" viewBox="0 0 16 16">
    <path d="M1 1h5v1h-5z M10 1h5v1h-5z M1 2h4v1h-4z M11 2h4v1h-4z M1 3h5v1h-5z M10 3h5v1h-5z M1 4h6v1h-6z M9 4h6v1h-6z M1 5h1v1h-1z M3 5h4v1h-4z M9 5h4v1h-4z M14 5h1v1h-1z M4 6h2v1h-2z M10 6h2v1h-2z M4 9h2v1h-2z M10 9h2v1h-2z M1 10h1v1h-1z M3 10h4v1h-4z M9 10h4v1h-4z M14 10h1v1h-1z M1 11h6v1h-6z M9 11h6v1h-6z M1 12h5v1h-5z M10 12h5v1h-5z M1 13h4v1h-4z M11 13h4v1h-4z M1 14h5v1h-5z M10 14h5v1h-5z" />
  </symbol>
  <symbol id="move" viewBox="0 0 16 16">
    <path d="M7 1h2v1h-2z M6 2h4v1h-4z M5 3h6v1h-6z M7 4h2v1h-2z M3 5h1v1h-1z M7 5h2v1h-2z M12 5h1v1h-1z M2 6h2v1h-2z M6 6h4v1h-4z M12 6h2v1h-2z M1 7h6v1h-6z M9 7h6v1h-6z M1 8h6v1h-6z M9 8h6v1h-6z M2 9h2v1h-2z M6 9h4v1h-4z M12 9h2v1h-2z M3 10h1v1h-1z M7 10h2v1h-2z M12 10h1v1h-1z M7 11h2v1h-2z M5 12h6v1h-6z M6 13h4v1h-4z M7 14h2v1h-2z" />
  </symbol>
  <symbol id="house" viewBox="0 0 16 16">
    <path d="M7 2h2v1h-2z M6 3h4v1h-4z M5 4h6v1h-6z M4 5h8v1h-8z M3 6h10v1h-10z M2 7h12v1h-12z M2 8h12v1h-12z M2 9h12v1h-12z M4 10h3v1h-3z M9 10h3v1h-3z M4 11h3v1h-3z M9 11h3v1h-3z M4 12h3v1h-3z M9 12h3v1h-3z M4 13h3v1h-3z M9 13h3v1h-3z" />
  </symbol>
  <symbol id="trophy" viewBox="0 0 16 16">
    <path d="M4 2h8v1h-8z M4 3h8v1h-8z M1 4h14v1h-14z M1 5h1v1h-1z M4 5h8v1h-8z M14 5h1v1h-1z M1 6h1v1h-1z M4 6h8v1h-8z M14 6h1v1h-1z M1 7h1v1h-1z M4 7h8v1h-8z M14 7h1v1h-1z M1 8h1v1h-1z M4 8h8v1h-8z M14 8h1v1h-1z M2 9h12v1h-12z M5 10h6v1h-6z M7 11h2v1h-2z M5 12h6v1h-6z M4 13h8v1h-8z" />
  </symbol>
  <symbol id="person" viewBox="0 0 16 16">
    <path d="M6 2h4v1h-4z M5 3h6v1h-6z M5 4h6v1h-6z M5 5h6v1h-6z M5 6h6v1h-6z M6 7h4v1h-4z M5 8h6v1h-6z M4 9h8v1h-8z M4 10h8v1h-8z M4 11h8v1h-8z M4 12h8v1h-8z M5 13h6v1h-6z" />
  </symbol>
  <symbol id="group" viewBox="0 0 16 16">
    <path d="M6 2h4v1h-4z M2 3h2v1h-2z M5 3h6v1h-6z M12 3h2v1h-2z M1 4h3v1h-3z M5 4h6v1h-6z M12 4h3v1h-3z M1 5h3v1h-3z M5 5h6v1h-6z M12 5h3v1h-3z M1 6h3v1h-3z M5 6h6v1h-6z M12 6h3v1h-3z M2 7h2v1h-2z M6 7h4v1h-4z M12 7h2v1h-2z M1 8h2v1h-2z M5 8h6v1h-6z M13 8h2v1h-2z M1 9h2v1h-2z M4 9h8v1h-8z M13 9h2v1h-2z M1 10h2v1h-2z M4 10h8v1h-8z M13 10h2v1h-2z M1 11h2v1h-2z M4 11h8v1h-8z M13 11h2v1h-2z M2 12h1v1h-1z M4 12h8v1h-8z M13 12h1v1h-1z M5 13h6v1h-6z" />
  </symbol>
  <symbol id="target" viewBox="0 0 16 16">
    <path d="M7 1h2v1h-2z M4 2h2v1h-2z M7 2h2v1h-2z M10 2h2v1h-2z M7 3h2v1h-2z M2 4h1v1h-1z M7 4h2v1h-2z M13 4h1v1h-1z M2 5h1v1h-1z M13 5h1v1h-1z M1 7h4v1h-4z M7 7h2v1h-2z M11 7h4v1h-4z M1 8h4v1h-4z M7 8h2v1h-2z M11 8h4v1h-4z M2 10h1v1h-1z M13 10h1v1h-1z M2 11h1v1h-1z M7 11h2v1h-2z M13 11h1v1h-1z M7 12h2v1h-2z M4 13h2v1h-2z M7 13h2v1h-2z M10 13h2v1h-2z M7 14h2v1h-2z" />
  </symbol>
  <symbol id="selection_box" viewBox="0 0 16 16">
    <path d="M1 1h3v1h-3z M12 1h3v1h-3z M1 2h1v1h-1z M14 2h1v1h-1z M1 3h1v1h-1z M14 3h1v1h-1z M1 12h1v1h-1z M14 12h1v1h-1z M1 13h1v1h-1z M14 13h1v1h-1z M1 14h3v1h-3z M12 14h3v1h-3z" />
  </symbol>
  <symbol id="empty_heart" viewBox="0 0 16 16">
    <path d="M4 2h2v1h-2z M10 2h2v1h-2z M3 3h4v1h-4z M9 3h4v1h-4z M2 4h2v1h-2z M6 4h4v1h-4z M12 4h2v1h-2z M1 5h2v1h-2z M7 5h2v1h-2z M13 5h2v1h-2z M1 6h2v1h-2z M13 6h2v1h-2z M1 7h2v1h-2z M13 7h2v1h-2z M2 8h2v1h-2z M12 8h2v1h-2z M3 9h2v1h-2z M11 9h2v1h-2z M4 10h2v1h-2z M10 10h2v1h-2z M5 11h2v1h-2z M9 11h2v1h-2z M6 12h4v1h-4z M7 13h2v1h-2z" />
  </symbol>
  <symbol id="split_arrow" viewBox="0 0 16 16">
    <path d="M3 4h2v1h-2z M11 4h2v1h-2z M2 5h3v1h-3z M11 5h3v1h-3z M1 6h6v1h-6z M9 6h6v1h-6z M1 7h14v1h-14z M2 8h3v1h-3z M6 8h4v1h-4z M11 8h3v1h-3z M3 9h2v1h-2z M7 9h2v1h-2z M11 9h2v1h-2z M7 10h2v1h-2z M7 11h2v1h-2z" />
  </symbol>
  <symbol id="return_top" viewBox="0 0 16 16">
    <path d="M6 3h2v1h-2z M5 4h4v1h-4z M4 5h6v1h-6z M4 6h6v1h-6z M6 7h2v1h-2z M6 8h2v1h-2z M6 9h2v1h-2z M6 10h2v1h-2z M6 11h6v1h-6z M7 12h5v1h-5z" />
  </symbol>
  <symbol id="return_right" viewBox="0 0 16 16">
    <path d="M9 4h2v1h-2z M9 5h3v1h-3z M4 6h9v1h-9z M3 7h10v1h-10z M3 8h2v1h-2z M9 8h3v1h-3z M3 9h2v1h-2z M9 9h2v1h-2z M3 10h2v1h-2z M3 11h2v1h-2z" />
  </symbol>
  <symbol id="return_down" viewBox="0 0 16 16">
    <path d="M4 3h5v1h-5z M4 4h6v1h-6z M8 5h2v1h-2z M8 6h2v1h-2z M8 7h2v1h-2z M8 8h2v1h-2z M6 9h6v1h-6z M6 10h6v1h-6z M7 11h4v1h-4z M8 12h2v1h-2z" />
  </symbol>
  <symbol id="return_left" viewBox="0 0 16 16">
    <path d="M11 4h2v1h-2z M11 5h2v1h-2z M5 6h2v1h-2z M11 6h2v1h-2z M4 7h3v1h-3z M11 7h2v1h-2z M3 8h10v1h-10z M3 9h9v1h-9z M4 10h3v1h-3z M5 11h2v1h-2z" />
  </symbol>
  <symbol id="resize_width" viewBox="0 0 16 16">
    <path d="M3 5h2v1h-2z M11 5h2v1h-2z M2 6h3v1h-3z M11 6h3v1h-3z M1 7h14v1h-14z M1 8h14v1h-14z M2 9h3v1h-3z M11 9h3v1h-3z M3 10h2v1h-2z M11 10h2v1h-2z" />
  </symbol>
  <symbol id="resize_height" viewBox="0 0 16 16">
    <path d="M7 1h2v1h-2z M6 2h4v1h-4z M5 3h6v1h-6z M5 4h6v1h-6z M7 5h2v1h-2z M7 6h2v1h-2z M7 7h2v1h-2z M7 8h2v1h-2z M7 9h2v1h-2z M7 10h2v1h-2z M5 11h6v1h-6z M5 12h6v1h-6z M6 13h4v1h-4z M7 14h2v1h-2z" />
  </symbol>
</svg>