<svg width="23" height="9" viewBox="0 0 23 9" xmlns="http://www.w3.org/2000/svg" shape-rendering="crispEdges">
  <path d="M0 0h23v1h-23z M0 1h1v1h-1z M22 1h1v1h-1z M0 2h1v1h-1z M4 2h15v1h-15z M22 2h1v1h-1z M0 3h1v1h-1z M4 3h15v1h-15z M22 3h1v1h-1z M0 4h1v1h-1z M4 4h15v1h-15z M22 4h1v1h-1z M0 5h1v1h-1z M4 5h15v1h-15z M22 5h1v1h-1z M0 6h1v1h-1z M2 6h1v1h-1z M4 6h15v1h-15z M20 6h1v1h-1z M22 6h1v1h-1z M0 7h1v1h-1z M2 7h1v1h-1z M20 7h1v1h-1z M22 7h1v1h-1z M0 8h23v1h-23z " fill="#222222" />
  <path d="M1 1h1v1h-1z M3 1h17v1h-17z M21 1h1v1h-1z M1 2h1v1h-1z M3 2h1v1h-1z M19 2h1v1h-1z M21 2h1v1h-1z " fill="#ee8e2e" />
  <path d="M2 1h1v1h-1z M20 1h1v1h-1z M2 2h1v1h-1z M20 2h1v1h-1z " fill="#c56025" />
  <path d="M1 3h1v1h-1z M3 3h1v1h-1z M19 3h1v1h-1z M21 3h1v1h-1z M1 4h1v1h-1z M3 4h1v1h-1z M19 4h1v1h-1z M21 4h1v1h-1z M1 5h1v1h-1z M3 5h1v1h-1z M19 5h1v1h-1z M21 5h1v1h-1z " fill="#8f4029" />
  <path d="M2 3h1v1h-1z M20 3h1v1h-1z M2 4h1v1h-1z M20 4h1v1h-1z M2 5h1v1h-1z M20 5h1v1h-1z M1 6h1v1h-1z M3 6h1v1h-1z M19 6h1v1h-1z M21 6h1v1h-1z M1 7h1v1h-1z M3 7h17v1h-17z M21 7h1v1h-1z " fill="#62232f" />
</svg>