<svg width="8" height="8" viewBox="0 0 8 8" xmlns="http://www.w3.org/2000/svg" shape-rendering="crispEdges">
  <path d="M2 0h4v1h-4z M0 1h2v1h-2z M6 1h2v1h-2z M0 2h1v1h-1z M7 2h1v1h-1z M0 3h1v1h-1z M7 3h1v1h-1z M0 4h1v1h-1z M7 4h1v1h-1z M0 5h1v1h-1z M7 5h1v1h-1z M0 6h2v1h-2z M6 6h2v1h-2z M2 7h4v1h-4z " fill="#aa8d7a" />
  <path d="M2 1h4v1h-4z M1 2h2v1h-2z M5 2h2v1h-2z M1 3h1v1h-1z M6 3h1v1h-1z M1 4h1v1h-1z M6 4h1v1h-1z M1 5h2v1h-2z M5 5h2v1h-2z M2 6h4v1h-4z " fill="#d3bfa9" />
  <path d="M3 2h2v1h-2z M2 3h4v1h-4z M2 4h4v1h-4z M3 5h2v1h-2z " fill="#ffffff" />
</svg>