<svg width="11" height="8" viewBox="0 0 11 8" xmlns="http://www.w3.org/2000/svg" shape-rendering="crispEdges">
  <path d="M1 0h9v1h-9z M0 1h1v1h-1z M10 1h1v1h-1z M0 2h1v1h-1z M10 2h1v1h-1z M0 3h1v1h-1z M3 3h5v1h-5z M10 3h1v1h-1z M0 4h1v1h-1z M4 4h3v1h-3z M10 4h1v1h-1z M0 5h1v1h-1z M5 5h1v1h-1z M10 5h1v1h-1z M0 6h1v1h-1z M10 6h1v1h-1z M0 7h11v1h-11z " fill="#222222" />
  <path d="M1 1h9v1h-9z M1 2h1v1h-1z M9 2h1v1h-1z " fill="#ee8e2e" />
  <path d="M2 2h7v1h-7z M1 3h2v1h-2z M8 3h2v1h-2z M1 4h2v1h-2z M8 4h2v1h-2z M2 5h2v1h-2z M7 5h2v1h-2z " fill="#8f4029" />
  <path d="M3 4h1v1h-1z M7 4h1v1h-1z M1 5h1v1h-1z M4 5h1v1h-1z M6 5h1v1h-1z M9 5h1v1h-1z M1 6h9v1h-9z " fill="#62232f" />
</svg>