<svg width="18" height="12" viewBox="0 0 18 12" xmlns="http://www.w3.org/2000/svg" shape-rendering="crispEdges">
  <path d="M2 0h14v1h-14z M1 1h1v1h-1z M16 1h1v1h-1z M0 2h1v1h-1z M17 2h1v1h-1z M0 3h1v1h-1z M17 3h1v1h-1z M0 4h1v1h-1z M17 4h1v1h-1z M0 5h1v1h-1z M17 5h1v1h-1z M0 6h1v1h-1z M17 6h1v1h-1z M0 7h1v1h-1z M17 7h1v1h-1z M0 8h1v1h-1z M17 8h1v1h-1z M0 9h1v1h-1z M17 9h1v1h-1z M1 10h1v1h-1z M16 10h1v1h-1z M2 11h14v1h-14z " fill="#222222" />
  <path d="M2 1h14v1h-14z M1 2h1v1h-1z M16 2h1v1h-1z M1 3h1v1h-1z M16 3h1v1h-1z M1 4h1v1h-1z M16 4h1v1h-1z M1 5h1v1h-1z M16 5h1v1h-1z M1 6h1v1h-1z M16 6h1v1h-1z M1 7h1v1h-1z M16 7h1v1h-1z M1 8h1v1h-1z M16 8h1v1h-1z M1 9h1v1h-1z M16 9h1v1h-1z M2 10h14v1h-14z " fill="#facb3e" />
  <path d="M2 2h14v1h-14z M2 3h14v1h-14z M2 4h14v1h-14z " fill="#483b3a" />
  <path d="M2 5h14v1h-14z M2 6h14v1h-14z M2 7h14v1h-14z M2 8h14v1h-14z M2 9h14v1h-14z " fill="#aa8d7a" />
</svg>