<svg width="14" height="14" viewBox="0 0 14 14" xmlns="http://www.w3.org/2000/svg" shape-rendering="crispEdges">
  <path d="M1 0h12v1h-12z M0 1h2v1h-2z M12 1h2v1h-2z M0 2h1v1h-1z M13 2h1v1h-1z M0 3h1v1h-1z M13 3h1v1h-1z M0 4h1v1h-1z M13 4h1v1h-1z M0 5h1v1h-1z M13 5h1v1h-1z M0 6h1v1h-1z M13 6h1v1h-1z M0 7h1v1h-1z M13 7h1v1h-1z M0 8h1v1h-1z M13 8h1v1h-1z M0 9h1v1h-1z M13 9h1v1h-1z M0 10h1v1h-1z M13 10h1v1h-1z M0 11h1v1h-1z M13 11h1v1h-1z M0 12h2v1h-2z M12 12h2v1h-2z M1 13h12v1h-12z " fill="#222222" />
  <path d="M2 1h10v1h-10z M1 2h1v1h-1z M12 2h1v1h-1z M1 3h1v1h-1z M12 3h1v1h-1z M1 4h1v1h-1z M12 4h1v1h-1z M1 5h1v1h-1z M12 5h1v1h-1z M1 6h1v1h-1z M12 6h1v1h-1z M1 7h1v1h-1z M12 7h1v1h-1z M1 8h1v1h-1z M12 8h1v1h-1z M1 9h1v1h-1z M12 9h1v1h-1z M1 10h1v1h-1z M12 10h1v1h-1z M1 11h1v1h-1z M12 11h1v1h-1z M2 12h10v1h-10z " fill="#aa8d7a" />
  <path d="M2 2h10v1h-10z M2 3h10v1h-10z M2 4h10v1h-10z M2 5h10v1h-10z M2 6h10v1h-10z M2 7h10v1h-10z M2 8h10v1h-10z M2 9h10v1h-10z M2 10h10v1h-10z M2 11h10v1h-10z " fill="#d3bfa9" />
</svg>