<svg width="24" height="24" viewBox="0 0 24 24" xmlns="http://www.w3.org/2000/svg" shape-rendering="crispEdges">
  <path d="M1 0h22v1h-22z M0 1h1v1h-1z M23 1h1v1h-1z M0 2h1v1h-1z M23 2h1v1h-1z M0 3h1v1h-1z M23 3h1v1h-1z M0 4h1v1h-1z M23 4h1v1h-1z M0 5h1v1h-1z M23 5h1v1h-1z M0 6h1v1h-1z M23 6h1v1h-1z M0 7h1v1h-1z M23 7h1v1h-1z M0 8h1v1h-1z M23 8h1v1h-1z M0 9h1v1h-1z M23 9h1v1h-1z M0 10h1v1h-1z M23 10h1v1h-1z M0 11h1v1h-1z M23 11h1v1h-1z M0 12h1v1h-1z M23 12h1v1h-1z M0 13h1v1h-1z M23 13h1v1h-1z M0 14h1v1h-1z M23 14h1v1h-1z M0 15h1v1h-1z M23 15h1v1h-1z M0 16h1v1h-1z M23 16h1v1h-1z M0 17h1v1h-1z M23 17h1v1h-1z M0 18h1v1h-1z M23 18h1v1h-1z M0 19h1v1h-1z M23 19h1v1h-1z M0 20h1v1h-1z M23 20h1v1h-1z M0 21h1v1h-1z M23 21h1v1h-1z M0 22h1v1h-1z M23 22h1v1h-1z M0 23h1v1h-1z M23 23h1v1h-1z " fill="#222222" />
  <path d="M1 1h22v1h-22z M1 2h1v1h-1z M22 2h1v1h-1z M1 3h1v1h-1z M22 3h1v1h-1z M1 4h1v1h-1z M22 4h1v1h-1z M1 5h1v1h-1z M22 5h1v1h-1z M1 6h1v1h-1z M22 6h1v1h-1z M1 7h1v1h-1z M22 7h1v1h-1z M1 8h1v1h-1z M22 8h1v1h-1z M1 9h1v1h-1z M22 9h1v1h-1z M1 10h1v1h-1z M22 10h1v1h-1z M1 11h1v1h-1z M22 11h1v1h-1z M1 12h1v1h-1z M22 12h1v1h-1z M1 13h1v1h-1z M22 13h1v1h-1z M1 14h1v1h-1z M22 14h1v1h-1z M1 15h1v1h-1z M22 15h1v1h-1z M1 16h1v1h-1z M22 16h1v1h-1z M1 17h1v1h-1z M22 17h1v1h-1z M1 18h1v1h-1z M22 18h1v1h-1z M1 19h1v1h-1z M22 19h1v1h-1z M1 20h1v1h-1z M22 20h1v1h-1z M1 21h1v1h-1z M22 21h1v1h-1z M1 22h1v1h-1z M22 22h1v1h-1z M1 23h1v1h-1z M22 23h1v1h-1z " fill="#aa8d7a" />
  <path d="M2 2h20v1h-20z M2 3h20v1h-20z M2 4h20v1h-20z M2 5h20v1h-20z M2 6h20v1h-20z M2 7h20v1h-20z M2 8h20v1h-20z M2 9h20v1h-20z M2 10h20v1h-20z M2 11h20v1h-20z M2 12h20v1h-20z M2 13h20v1h-20z M2 14h20v1h-20z M2 15h20v1h-20z M2 16h20v1h-20z M2 17h20v1h-20z M2 18h20v1h-20z M2 19h20v1h-20z M2 20h20v1h-20z M2 21h20v1h-20z M2 22h20v1h-20z M2 23h20v1h-20z " fill="#d3bfa9" />
</svg>