<svg width="8" height="8" viewBox="0 0 8 8" xmlns="http://www.w3.org/2000/svg" shape-rendering="crispEdges">
  <path d="M1 0h6v1h-6z M0 1h1v1h-1z M7 1h1v1h-1z M0 2h1v1h-1z M7 2h1v1h-1z M0 3h1v1h-1z M7 3h1v1h-1z M0 4h1v1h-1z M7 4h1v1h-1z M0 5h1v1h-1z M7 5h1v1h-1z M0 6h1v1h-1z M7 6h1v1h-1z M1 7h6v1h-6z " fill="#222222" />
  <path d="M1 1h6v1h-6z " fill="#ffcc68" />
  <path d="M1 2h1v1h-1z M1 3h1v1h-1z M1 4h1v1h-1z M1 5h1v1h-1z M1 6h1v1h-1z " fill="#facb3e" />
  <path d="M2 2h4v1h-4z M2 3h1v1h-1z M5 3h1v1h-1z M2 4h1v1h-1z M5 4h1v1h-1z M2 5h4v1h-4z " fill="#ee8e2e" />
  <path d="M6 2h1v1h-1z M6 3h1v1h-1z M6 4h1v1h-1z M6 5h1v1h-1z " fill="#8f4029" />
  <path d="M3 3h2v1h-2z M3 4h2v1h-2z " fill="#fdf7ed" />
  <path d="M2 6h5v1h-5z " fill="#62232f" />
</svg>