<svg width="14" height="14" viewBox="0 0 14 14" xmlns="http://www.w3.org/2000/svg" shape-rendering="crispEdges">
  <path d="M2 2h3v1h-3z M9 2h3v1h-3z M2 3h1v1h-1z M5 3h1v1h-1z M8 3h1v1h-1z M11 3h1v1h-1z M2 4h1v1h-1z M6 4h2v1h-2z M11 4h1v1h-1z M3 5h1v1h-1z M10 5h1v1h-1z M4 6h1v1h-1z M9 6h1v1h-1z M4 7h1v1h-1z M9 7h1v1h-1z M3 8h1v1h-1z M10 8h1v1h-1z M2 9h1v1h-1z M6 9h2v1h-2z M11 9h1v1h-1z M2 10h1v1h-1z M5 10h1v1h-1z M8 10h1v1h-1z M11 10h1v1h-1z M2 11h3v1h-3z M9 11h3v1h-3z " fill="#222222" />
  <path d="M3 3h2v1h-2z M9 3h2v1h-2z M3 4h3v1h-3z M8 4h3v1h-3z M4 5h6v1h-6z M5 6h4v1h-4z M5 7h4v1h-4z M4 8h6v1h-6z M3 9h3v1h-3z M8 9h3v1h-3z M3 10h2v1h-2z M9 10h2v1h-2z " fill="#ffffff" />
</svg>